<svg xmlns="http://www.w3.org/2000/svg" xmlns:xlink="http://www.w3.org/1999/xlink" xmlns:dc="http://purl.org/dc/elements/1.1/" xmlns:rdf="http://www.w3.org/1999/02/22-rdf-syntax-ns#" width="1088" height="1172" viewBox="0 5 200 200">
  <defs>
    <clipPath id="shield_437764670">
      <path d="m 152,21 c 0,0 -27,14 -52,-4 C 75,35 48,21 48,21 50,45 30,55 30,75 60,75 60,115 32,120 c 3,40 53,50 68,80 15,-30 65,-40 68,-80 -28,-5 -28,-45 2,-45 C 170,55 150,45 152,21 Z"/>
    </clipPath>
    <linearGradient id="luster" x1="0%" y1="100%" x2="95%" y2="10%">
      <stop stop-color="#000" stop-opacity=".3" offset="0"/>
      <stop stop-color="#ccc" stop-opacity="0" offset=".8"/>
      <stop stop-color="#fff" stop-opacity=".2" offset="1"/>
    </linearGradient>
    <g id="sabre" stroke-width="3" transform="matrix(-0.05,-0.115,0.108,-0.025,59.7,152)" source="http://wappenwiki.org/images/f/f2/Mohyla_Ancient.svg" license="https://creativecommons.org/licenses/by-nc-sa/3.0">
      <path d="m616.7 854.1s-112.8-59.6-247.1-226.9c-118.2-147.1-176.7-288.6-176.7-288.6l-42.5 29.1c0.1 0 181.2 450.3 466.3 486.4z"/>
      <path d="m126.8 231.5c-18.099-2.937-19.226-0.79035-27.5 14.2 0 0 48.246 94.257 52.5 104.2 7.3204 16.305 33.553-5.5344 29.4-15.1-2.7593-4.0924-54.4-103.3-54.4-103.3z"/>
      <path d="m61.3 222.7c-0.5-9.2 4.4-19.5 13.4-24.4 8.2-4.5 19.1-8 27.2-3.6 9.2 5 20.3 28.3 26.6 40-12.012-1.6519-22.804 5.4796-27.7 13.9-3.3-6.4-10.2-20.2-18.5-19.6-8.3 0.5-6.5 6.4-11.6 6.2-4.5-0.3-8.9-5.3-9.4-12.5z"/>
      <path d="m176.4 362.6c-10 5.2-42.1 21.201-50.2 24.101-15.4 5.3-31 4.8-38.1-9-4.8-9.4-1.9-17.9 5.7-21.8 5.1-2.6 11-2.7 13.8 2.8 1.6 3 0.9 4.1 0.6 6.3-0.4 2.5-1.3 3.3 0.1 6 2.1 4.1 7.7 3.5 11 2.8 3.9-0.8 12.3-4.6 17.9-7.4 12.7-6.3 30.227-21.413 30.227-21.413 5-2.6 40.373-18.587 48.373-21.587 15.4-5.2 31-4.8 38.1 9 4.8 9.3 1.9 17.9-5.7 21.8-5.1 2.7-11 2.7-13.8-2.8-1.5-3-0.9-4.1-0.6-6.3 0.4-2.6 1.3-3.4-0.1-6-2.1-4.1-7.7-3.5-11-2.8-3.9 0.8-12.3 4.6-17.9 7.4-12.7 6.3-28.4 18.899-28.4 18.899z"/>
      <g fill="none">
        <path d="m616.7 854.1c-48.3-19.3-98.4-48.4-151.9-90.7-81.6-64.6-168.6-167-266-354.8-4-7.8-12.7-24.4-16.8-32.5"/>
        <line x1="182.2" x2="196.2" y1="376.1" y2="349.3"/>
        <line x1="182.2" x2="155" y1="376.1" y2="375"/>
        <path d="m175.2 324c-12.597-5.567-25.783 3.9534-28.7 14.8"/>
        <path d="m166.3 306.6c-12.597-3.903-26.388 4.256-28.7 14.8"/>
        <path d="m157.3 289.3c-12.445-4.5081-25.935 4.256-28.7 14.8"/>
        <path d="m147.79 271.9c-11.723-4.8028-26.509 5.3906-28.095 14.8"/>
        <path d="m138.79 254.75c-12.709-4.4151-25.418 4.3696-27.339 14.649"/>
      </g>
    </g>
    <g id="arrowsSheaf" stroke-width="3" transform="matrix(.11 0 0 .11 10.9 102)" source="http://wappenwiki.org/images/6/66/Luk.svg" license="https://creativecommons.org/licenses/by-nc-sa/3.0">
      <g transform="scale(1 -1) rotate(45 770.959 4.823)">
        <path d="M817.4 323a60 60 0 0022.3 6.1c9.6 0 20.2-9.6 20.2-20.8 0-30.9-42.5-111.4-42.5-111.4zm-15 0s-12.1 6.1-22.3 6.1c-9.6 0-20.2-9.6-20.2-20.8 0-30.9 42.5-111.4 42.5-111.4zm0-620.4v643.5s3.3 1.2 7.5 1.2 7.5-1.9 7.5-1.9v-643.5z"/>
        <ellipse cx="809.9" cy="-300.7" rx="15" ry="8.3"/>
        <path d="M819.3-301l-3.5-52.9 21.8 44.5H870l-60-71.9-60 71.9h32.4l21.8-44.5-3.5 52.9s2.8 2.6 9.4 2.6c6.4 0 9.2-2.6 9.2-2.6z"/>
        <path fill="#000" stroke="none" d="M818.8 226.4l18.5 40.4-21.2-39.1zm-.1 33.2l18.4 30.2-20.9-28.5zm-.1 28.7l19.2 29.2-21.6-27.4zm-14.8-60.6l-21.3 39.1 18.6-40.4zm-.1 33.6l-20.9 28.5 18.4-30.2zm0 28.8l-21.6 27.4 19.1-29.2z"/>
      </g>
      <g transform="scale(1 -1) rotate(-45 852.99 4.718)">
        <path d="M817.4 323a60 60 0 0022.3 6.1c9.6 0 20.2-9.6 20.2-20.8 0-30.9-42.5-111.4-42.5-111.4zm-15 0s-12.1 6.1-22.3 6.1c-9.6 0-20.2-9.6-20.2-20.8 0-30.9 42.5-111.4 42.5-111.4zm0-620.4v643.5s3.3 1.2 7.5 1.2 7.5-1.9 7.5-1.9v-643.5z"/>
        <ellipse cx="809.9" cy="-300.7" rx="15" ry="8.3"/>
        <path d="M819.3-301l-3.5-52.9 21.8 44.5H870l-60-71.9-60 71.9h32.4l21.8-44.5-3.5 52.9s2.8 2.6 9.4 2.6c6.4 0 9.2-2.6 9.2-2.6z"/>
        <path fill="#000" stroke="none" d="M818.8 226.4l18.5 40.4-21.2-39.1zm-.1 33.2l18.4 30.2-20.9-28.5zm-.1 28.7l19.2 29.2-21.6-27.4zm-14.8-60.6l-21.3 39.1 18.6-40.4zm-.1 33.6l-20.9 28.5 18.4-30.2zm0 28.8l-21.6 27.4 19.1-29.2z"/>
      </g>
      <g transform="matrix(1 0 0 -1 0 -34)">
        <path d="M817.4 323a60 60 0 0022.3 6.1c9.6 0 20.2-9.6 20.2-20.8 0-30.9-42.5-111.4-42.5-111.4zm-15 0s-12.1 6.1-22.3 6.1c-9.6 0-20.2-9.6-20.2-20.8 0-30.9 42.5-111.4 42.5-111.4zm0-620.4v643.5s3.3 1.2 7.5 1.2 7.5-1.9 7.5-1.9v-643.5z"/>
        <ellipse cx="809.9" cy="-300.7" rx="15" ry="8.3"/>
        <path d="M819.3-301l-3.5-52.9 21.8 44.5H870l-60-71.9-60 71.9h32.4l21.8-44.5-3.5 52.9s2.8 2.6 9.4 2.6c6.4 0 9.2-2.6 9.2-2.6z"/>
        <path fill="#000" stroke="none" d="M818.8 226.4l18.5 40.4-21.2-39.1zm-.1 33.2l18.4 30.2-20.9-28.5zm-.1 28.7l19.2 29.2-21.6-27.4zm-14.8-60.6l-21.3 39.1 18.6-40.4zm-.1 33.6l-20.9 28.5 18.4-30.2zm0 28.8l-21.6 27.4 19.1-29.2z"/>
      </g>
      <rect width="46" height="24" x="788" y="-34"/>
    </g>
    <g id="mullet4" author="Azgaar" license="https://creativecommons.org/publicdomain/zero/1.0">
      <polygon points="100 60 109.9 90.1 140 100 109.9 109.9 100 140 90.1 109.9 60 100 90.1 90.1"/>
    </g>
  </defs>
  <g clip-path="url(#shield_437764670)">
    <rect class="field" x="0" y="0" width="200" height="200" fill="#b80015"/>
    <g class="ordinary" i="0" fill="#666666" stroke="none" stroke-width="1">
      <path d="M 80 0 L 80 80 L 0 80 L 0 95 L 80 95 L 80 105 L 0 105 L 0 120 L 80 120 L 80 200 L 95 200 L 95 120 L 105 120 L 105 200 L 120 200 L 120 120 L 200 120 L 200 105 L 120 105 L 120 95 L 200 95 L 200 80 L 120 80 L 120 0 L 105 0 L 105 80 L 95 80 L 95 0 L 80 0 z M 95 95 L 105 95 L 105 105 L 95 105 L 95 95 z"/>
    </g>
    <g class="charge" i="0" charge="sabre" fill="#000000" stroke="#000">
      <use xlink:href="#sabre" transform="translate(81 81) scale(0.49)"/>
    </g>
    <g class="charge" i="1" charge="arrowsSheaf" fill="#fff700" stroke="#000">
      <use xlink:href="#arrowsSheaf" transform="translate(28 88) scale(0.42)"/>
    </g>
    <g class="charge" i="2" charge="mullet4" fill="#ffffff" stroke="#000">
      <use xlink:href="#mullet4" transform="translate(-5 -5) scale(1.05)"/>
    </g>
  </g>
  <path class="grad" d="m 152,21 c 0,0 -27,14 -52,-4 C 75,35 48,21 48,21 50,45 30,55 30,75 60,75 60,115 32,120 c 3,40 53,50 68,80 15,-30 65,-40 68,-80 -28,-5 -28,-45 2,-45 C 170,55 150,45 152,21 Z" fill="url(#luster)" stroke="#333333" stroke-width="1" style="pointer-events: none;"/>
</svg>