<svg xmlns="http://www.w3.org/2000/svg" xmlns:xlink="http://www.w3.org/1999/xlink" xmlns:dc="http://purl.org/dc/elements/1.1/" xmlns:rdf="http://www.w3.org/1999/02/22-rdf-syntax-ns#" width="1088" height="1172" viewBox="0 10 200 200">
  <defs>
    <clipPath id="shield_396846363">
      <path d="m 25,25 v 175 l 75,-40 75,40 V 25 Z"/>
    </clipPath>
    <clipPath id="division_396846363">
      <path d="m 0,92.5 h 110 l -20,15 H 200 V 115 H 0 Z" transform="rotate(-90 100 100)"/>
      <rect x="115" y="0" width="85" height="200" shape-rendering="crispedges"/>
    </clipPath>
    <linearGradient id="luster" x1="0%" y1="100%" x2="95%" y2="10%">
      <stop stop-color="#000" stop-opacity=".3" offset="0"/>
      <stop stop-color="#ccc" stop-opacity="0" offset=".8"/>
      <stop stop-color="#fff" stop-opacity=".2" offset="1"/>
    </linearGradient>
    <g id="lochaberAxe" stroke-width=".5" source="http://wappenwiki.org" license="https://creativecommons.org/licenses/by-nc-sa/3.0">
      <path d="M109.5 60.78c0-.72-2.56-.72-2.59-.03l-.03 94.23h0v.08c0 .72 2.73.72 2.73 0z"/>
      <path d="M107.18 91.77a6.08 6.08 0 01-8.37-5.25c0-4.87 2.64-12 2.64-18.22 0-4.56-3.83-7.95-5.5-7.74 1.64 1.68 2.35 3.39 2.35 6.46 0 5.15-8.01 13.14-8.01 27.47 0 14.32 8.01 22.33 8.01 27.48 0 3.07-.72 4.78-2.35 6.46 1.69.21 5.5-3.18 5.5-7.74 0-6.22-2.64-13.35-2.64-18.22a6.08 6.08 0 018.37-5.25z"/>
      <path d="M109.76 90.81c0-.57-3.14-.57-3.14 0 0 .1-.09 8.36-.01 8.44.43.44 2.8.36 3.16 0l-.01-8.44z"/>
      <path fill="#000" stroke="none" d="M139-35.1c-.1 9.6-3.3 19.2-6.1 27.2-7.9 21.2-16 44.2-20.8 64.4-9.9 44.6-6.8 91.2 6.7 134.2 5.8 19.8 13.9 35.4 18.6 54.1.9 4.2 1.8 6.9 1.7 12.9-.3-4.5-1.3-9.1-2.3-12.8-6.8-17.8-14.2-36.3-20.1-53.6-17.6-51.7-17.2-109.8.1-160.3 4.8-14 9.6-25.6 15.2-39.5 3.4-8.8 6.5-17.5 7-26.6z" transform="matrix(.15 0 0 .15 77 77.775)"/>
    </g>
    <g id="falchion" stroke-width="3" transform="matrix(0,-0.11,0.11,0,79.1,145)" source="http://wappenwiki.org/images/8/81/Essex.svg" license="https://creativecommons.org/licenses/by-nc-sa/3.0">
      <path d="M205 161.1l-5.6 56.6s97.3 1 229.3 12.8c1.1-21.6 17.7-38.8 39.6-38.8 22.6 0 39.6 18.4 39.6 41 0 2.5-.2 4.9-.6 7.2 54.2 7.9 87 18 131.4 34.1 20.9-34.6 80.4-76.3 124.2-84.8C506.5 121.6 205 161.1 205 161.1z"/>
      <path d="M103 168l-10.9 19 10.9 16 87 1c7 0 11-9 11-19 0-8-5-16-11-18z"/>
      <path d="M71 229.4c-9.6-4.2-17.4-14.6-17.7-26.2-.3-10.7 1.9-23.4 10.5-29.2 9.9-6.7 28.3-5.7 43.4-6v.7c-3.5 3.1-5.3 9.9-5.3 16.9.1 6.4 1.7 13 5 16.4v1.1c-8.2 0-14.9-.2-18.7 8.4-3.8 8.6 3.1 9.9.2 14.9-2.5 4.4-9.9 6.3-17.4 3zM219.8 92.3c-17.6 0-26.2 15.5-28.9 33.7-1.2 9.7-3.4 48.8-3.4 61.6v0h0c0 .1 6 23.9 5.7 40-.1 7.1-.7 17.6-1.9 21.9-1.1 3.7-3.3 9.6-8.5 9.6-3.4 0-3.8-1.4-6.1-3.1-2.1-1.5-2.8-2.7-6.7-2.7-7 0-10 5.9-10 12.5 0 9.7 7.1 17.1 19 17.1 17.6 0 26.2-15.5 28.9-33.7 1.2-9.7 3.4-48.8 3.4-61.6 0 0-6-23.9-5.7-40 .1-7.1.7-17.6 1.9-21.9 1.1-3.7 3.3-9.6 8.5-9.6 3.4 0 3.8 1.4 6.1 3.1 2.1 1.5 2.8 2.7 6.7 2.7 7 0 10-5.9 10-12.5 0-9.7-7.1-17.1-19-17.1z"/>
      <path fill="#000" stroke="none" d="M211.6 187.5s3.2-.1 8.8-.2h10.1c3.9 0 8.3 0 13 .1 4.8.1 10 .2 15.4.3 5.5.1 11.2.3 17.2.5s12.1.5 18.4.8c6.3.3 12.6.6 19 1s12.7.7 19 1.1c6.3.4 12.4.8 18.4 1.2 6 .4 11.7.9 17.2 1.3 5.5.5 10.6.9 15.4 1.3 4.8.4 9.1.8 13 1.1 3.9.4 7.2.7 10 .9 5.5.5 8.7.8 8.7.8s-3.2-.2-8.7-.7c-2.8-.2-6.1-.5-10-.8-3.9-.3-8.2-.6-13-.9-4.8-.3-9.9-.7-15.4-1.1-5.5-.3-11.2-.7-17.2-1-6-.4-12.1-.6-18.4-1-6.3-.3-12.6-.6-19-.9-6.4-.3-12.7-.5-19-.7-6.3-.2-12.4-.3-18.4-.5-6-.1-11.7-.2-17.2-.3-5.5-.1-10.6-.1-15.4-.1-4.8 0-9.1 0-13 .1-3.9 0-7.2.1-10 .2-5.6.1-8.7.3-8.7.3l-.2-2.8z"/>
      <path fill="none" stroke="#000" stroke-width="3" stroke-miterlimit="10" d="M175.8 167.2c-5.2 1.7-7.8 9.9-7.7 18.4.1 8 2.6 16.4 7.7 18.3M153.7 167.2c-5.2 1.7-7.8 9.9-7.7 18.4.1 8 2.6 16.4 7.7 18.3M131.9 167.2c-5.2 1.7-7.8 9.9-7.7 18.4.1 8 2.6 16.4 7.7 18.3"/>
    </g>
  </defs>
  <g clip-path="url(#shield_396846363)">
    <rect class="field" x="0" y="0" width="200" height="200" fill="#002352"/>
    <g class="division" clip-path="url(#division_396846363)">
      <rect x="0" y="0" width="200" height="200" fill="#b80015"/>
    </g>
    <g class="charge" i="0" charge="lochaberAxe" fill="#ffffff" stroke="#000">
      <use xlink:href="#lochaberAxe" transform="translate(-57.5 -20) scale(1.2)"/>
    </g>
    <g class="charge" i="1" charge="falchion" fill="#ffffff" stroke="#000">
      <use xlink:href="#falchion" transform="translate(257.5 -20) scale(-1.2 1.2)"/>
    </g>
  </g>
  <path class="grad" d="m 25,25 v 175 l 75,-40 75,40 V 25 Z" fill="url(#luster)" stroke="#333333" stroke-width="1" style="pointer-events: none;"/>
</svg>