<svg xmlns="http://www.w3.org/2000/svg" xmlns:xlink="http://www.w3.org/1999/xlink" xmlns:dc="http://purl.org/dc/elements/1.1/" xmlns:rdf="http://www.w3.org/1999/02/22-rdf-syntax-ns#" width="1088" height="1172" viewBox="0 10 200 200">
  <defs>
    <clipPath id="shield_375339508">
      <path d="m 25,25 v 125 l 75,50 75,-50 V 25 Z"/>
    </clipPath>
    <clipPath id="division_375339508">
      <polygon points="0,0 15,0 100,200 185,0 200,0 200,200 0,200"/>
    </clipPath>
    <linearGradient id="luster" x1="0%" y1="100%" x2="95%" y2="10%">
      <stop stop-color="#000" stop-opacity=".3" offset="0"/>
      <stop stop-color="#ccc" stop-opacity="0" offset=".8"/>
      <stop stop-color="#fff" stop-opacity=".2" offset="1"/>
    </linearGradient>
    <g id="sword" stroke-width=".28" source="http://wappenwiki.org" license="https://creativecommons.org/licenses/by-nc-sa/3.0">
      <path d="M96.6 118.8L98 69.2c0-1.8.7-9.2 2-9.2 1.2 0 2 7.4 2 9.2l1.4 49.6z"/>
      <path d="M98.5 133.8L97 120h5.8l-1.3 13.8z"/>
      <path d="M100 120.9c4.2 0 8.2-.2 12.4-.6l-.8-3.2c-2 .4-3.5 1.3-5.4 1.5-2 .3-4.7-.3-6.2-.6-1.5.3-4.1.9-6.2.6-2-.2-3.5-1-5.4-1.5l-.8 3.2c4.2.4 8.2.6 12.4.6zm0 19.1c2 0 3.6-1.5 3.6-3.5 0-1.5-1-2.7-2.2-3.3-.4.2-1 .3-1.6.3-.5 0-1 0-1.3-.2-1.2.6-2 1.8-2 3.2 0 2 1.5 3.5 3.5 3.5z"/>
      <g fill="none">
        <path d="M99 118.25s.4-39.35.9-39.35.9 39.35.9 39.35"/>
        <path d="M102.7 121.4c-.3.6-1.5.85-2.7.8-1.2-.05-2.4-.2-2.7-.8m5.1 2.5c-.2.5-1.3.7-2.4.7-1 0-2.2-.3-2.4-.7m4.6 2.3c-.2.4-1.2.6-2.2.6s-2-.2-2.2-.6m4.2 2.3c-.2.4-1 .6-2 .6-.9 0-1.8-.2-2-.6m3.7 2.3c-.2.4-1 .5-1.7.5s-1.5-.1-1.7-.5"/>
        <path d="M97.6 137.1a2.4 2.4 0 014.8 0c0 1.3-1 2.3-2.4 2.3-1.3 0-2.4-1-2.4-2.3z"/>
        <path d="M100 118v2.9"/>
      </g>
    </g>
    <g id="crescent" stroke-width=".5" author="Azgaar" license="https://creativecommons.org/publicdomain/zero/1.0">
      <path d="M84 65c-32 15-24 68 16 68s48-53 16-68c18 20 2 41-16 41S67 85 84 65z"/>
      <path fill="none" d="M84 65c-26 15-14 56 16 56s42-41 16-56"/>
    </g>
  </defs>
  <g clip-path="url(#shield_375339508)">
    <rect class="field" x="0" y="0" width="200" height="200" fill="#000000"/>
    <g class="charge" i="1" charge="sword" fill="#d7374a" stroke="#000">
      <use xlink:href="#sword" transform="translate(-50 -50) scale(1.5)"/>
    </g>
    <g class="division" clip-path="url(#division_375339508)">
      <rect x="0" y="0" width="200" height="200" fill="#fafafa"/>
    </g>
    <g class="charge" i="0" charge="crescent" fill="#ffe066" stroke="none">
      <use xlink:href="#crescent" transform="translate(0 50)"/>
    </g>
  </g>
  <path class="grad" d="m 25,25 v 125 l 75,50 75,-50 V 25 Z" fill="url(#luster)" stroke="#333333" stroke-width="1" style="pointer-events: none;"/>
</svg>