<svg xmlns="http://www.w3.org/2000/svg" xmlns:xlink="http://www.w3.org/1999/xlink" xmlns:dc="http://purl.org/dc/elements/1.1/" xmlns:rdf="http://www.w3.org/1999/02/22-rdf-syntax-ns#" width="1088" height="1172" viewBox="0 10 200 200">
  <defs>
    <clipPath id="shield_724092937">
      <path d="m 51.2,19 h 96.4 c 3.1,12.7 10.7,20.9 26.5,20.8 C 175.7,94.5 165.3,144.3 100,200 43.5,154.2 22.8,102.8 25.1,39.7 37,38.9 47.1,34.7 51.2,19 Z"/>
    </clipPath>
    <clipPath id="division_724092937">
      <rect x="100" y="0" width="100" height="92.5"/>
      <rect x="0" y="107.5" width="100" height="92.5"/>
      <path d="m 200,90 -5,5 v 10 l -5,5 -5,-5 V 95 l -5,-5 -5,5 v 10 l -5,5 -5,-5 V 95 l -5,-5 -5,5 v 10 l -5,5 -5,-5 V 95 l -5,-5 -5,5 v 10 l -5,6 -5,-6 V 95 l -5,-5 -5,5 v 10 l -5,5 -5,-5 V 95 l -5,-5 -5,5 v 10 l -5,5 -5,-5 V 95 l -5,-5 -5,5 v 10 l -5,6 -5,-6 V 95 l -5,-5 -5,5 v 10 l -5,5 -5,-5 V 95 l -5,-5 -5,5 v 10 l -5,5 -5,-5 V 95 l -5,-5 -5,5 v 10 l -5,5 -5,-5 V 95 L 0,90 v 25 h 200" transform="translate(0 50) scale(.5001)"/>
      <path d="m 200,90 -5,5 v 10 l -5,5 -5,-5 V 95 l -5,-5 -5,5 v 10 l -5,5 -5,-5 V 95 l -5,-5 -5,5 v 10 l -5,5 -5,-5 V 95 l -5,-5 -5,5 v 10 l -5,6 -5,-6 V 95 l -5,-5 -5,5 v 10 l -5,5 -5,-5 V 95 l -5,-5 -5,5 v 10 l -5,5 -5,-5 V 95 l -5,-5 -5,5 v 10 l -5,6 -5,-6 V 95 l -5,-5 -5,5 v 10 l -5,5 -5,-5 V 95 l -5,-5 -5,5 v 10 l -5,5 -5,-5 V 95 l -5,-5 -5,5 v 10 l -5,5 -5,-5 V 95 L 0,90 v 25 h 200" transform="translate(200 150) scale(-.5)"/>
    </clipPath>
    <radialGradient id="backlight" cx="100%" cy="100%" r="150%">
      <stop stop-color="#fff" stop-opacity=".3" offset="0"/>
      <stop stop-color="#fff" stop-opacity=".15" offset=".25"/>
      <stop stop-color="#000" stop-opacity="0" offset="1"/>
    </radialGradient>
    <g id="crossSantiago" stroke-width=".5" author="Azgaar" license="https://creativecommons.org/publicdomain/zero/1.0">
      <path d="M100 148s3.84-26.43 9-46c0 0-6.3 0-6.3-11h9.3c1.7 0 3.69 1.45 3.69 3.16 0 1.4-1.38 2.38-2.59 2.38-1.72 0-2.88-.83-2.88-.83 0 4.5 2.74 6.62 5.81 6.62 3.52 0 6.65-2 6.65-5.65 0-3.32-2.68-4.77-2.68-4.77l1 .07c5.11 0 9-3.98 9-3.98s-3.89-3.54-9-3.54l-1 .07s2.68-1.45 2.68-4.77c0-3.67-3.13-5.65-6.65-5.65-3.08 0-5.81 2.12-5.81 6.62 0 0 1.16-.84 2.88-.84 1.2 0 2.59.98 2.59 2.39 0 1.7-1.97 2.73-3.69 2.72h-9.3c0-7 1.3-11 1.3-11 4 3 8-1 8-4 0-6-8-6-12-12-4 6-12 6-12 12 0 3 4 7 8 4 0 0 1.3 4 1.3 11H88c-1.7 0-3.8-1.01-3.8-2.72 0-1.4 1.37-2.39 2.58-2.39 1.72 0 2.89.83 2.89.83 0-4.5-2.75-6.61-5.82-6.61-3.52 0-6.64 2-6.64 5.65a5.58 5.58 0 002.67 4.77l-1-.07C73.78 84.46 70 88 70 88s3.77 3.98 8.88 3.98l1-.07s-2.67 1.45-2.67 4.77c0 3.66 3.12 5.64 6.64 5.64 3.08 0 5.82-2.11 5.82-6.61 0 0-1.17.83-2.89.83-1.2 0-2.58-.98-2.58-2.38 0-1.71 2.08-3.1 3.8-3.16h9.3c0 5-1.3 11-6.3 11z"/>
    </g>
    <g id="heron" stroke-width=".3" source="http://wappenwiki.org" license="https://creativecommons.org/licenses/by-nc-sa/3.0">
      <path d="M95.03 140.6s1.07-.34 1.38.5c.31.85-.16 1.13-.16 1.13s-.3.1-.52.33c-.6.58-.35 1.14.03 1.52.17.17.33.2.37.27.12.18-1.23.33-1.94-1.15-.76-1.6.84-2.6.84-2.6zm-3.15-3.58s1.11.07 1.1.97c-.02.9-.56 1-.56 1s-.32-.02-.62.1c-.76.33-.73.93-.53 1.43.1.23.23.3.25.39.04.21-1.27-.15-1.39-1.78-.1-1.78 1.75-2.11 1.75-2.11zm.89-4.34s.77.81.14 1.47c-.63.64-1.02.35-1.02.35s-.21-.22-.52-.33c-.78-.28-1.25.15-1.43.66-.09.23-.03.39-.09.46-.11.19-.82-.97.2-2.24 1.13-1.39 2.72-.37 2.72-.37z"/>
      <path d="M107.42 108.34c-.04.15-.18.13-1.23.31-1.13.2-1.09.93-1.25.9h-.04c.2.34.55.77.82 1.47.3.8.41 1.25.5 1.52.35.54-.78 1.07-.32 2.62.18 1.49-1.35 4.96-1.9 6.89-.27.22-.6 1.56-.73 1.95-.27.22-.77 1.7-.67 1.85-.23.13-.64 1.51-.5 1.87-.2.2-.62 1.5-.6 1.8-.25.19-.81 1.68-.64 1.93-.06.14-.2.13-.31.35-.25.44-.27.85-.78 1.3-.45.37-.88.46-1.48.6-1.07.07-1.66-.52-2.55-.7a1.7 1.7 0 00-.75.06c-.69.3-1.35-.17-1.4-.41-.1-.66-.59-.77-1.09-.8-.56.03-.77.42-.77.42s.61.1.4 1.18c-.04.14-.06.28-.13.4-.06.1-.31.4-.32.49-.04.28.22.59.76.61.35.01.64-.28.77-.45.44.2.86.39 1.35.27.16-.04.33-.1.48-.05.16.05.26.22.4.33.18.15.76.07 1 .06-.44.18-.96.55-1.56.52-.43-.03-.78-.06-1.12.11-.41.2-.54.42-.84.71-.05-.14-.28-.28-.4-.32-.16-.05-.32-.05-.48-.05-.51 0-1.4.58-1.12 1.23.03.08.04.06.11.06.44-.15 1.22.58 1.17 1.54-.01.11.1.36.2.42.26.17.85.19 1.27-.19s.27-.74.26-.88c.32-.19.53-.6.83-.83.45-.34 1.07-.2 1.64-.23.62-.02 1.44-.62 1.52-.66-.24.48-.57 1.09-1.13 1.28-.32.11-.58.36-.73.73-.04.13-.2.38-.25.61-.05.23-.13.46-.13.46s-.38-.25-.94-.02c-.72.31-.95 1.1-.7 1.57l.23.21c.59-.58 1.9.2 1.9.78.08.18.47.4 1.01.01.25-.19.45-.53.4-.98s-.25-.28-.25-.69.67-.83.87-1c.31-.25.53-.53.66-.87.17-.49.14-.77.41-1.2.27-.41.66-.28 1.27-.4.62-.12.72-.72 1.16-1.18.24-.29.96-.58 1.11-.28.31.65.82.3.86.43.05.3-.2.9.5 1.27.6.3.9-.13.9-.13s-.23-1.26 1.29-1.61c.16-.1.22-.7-.63-1.02-.5-.24-.88.18-.88.18s-.36-.46-.97-.33c-.37.07-.3-.13-.6-.34-.22-.15-.55-.18-.6-.32a4.33 4.33 0 01.15-1.74s.37-1.15.5-1.7c.13-.54 1.27-4.26 1.96-6.05s1.97-5.24 1.97-5.24c.47-1.2.92-2.66 1.48-3.83 1.52-2.2.2-2.76-.11-3.47-.15-.33-.5-1.26-.75-2.14-.22-.56-.36-.96-.46-1.19z"/>
      <path d="M98.63 103.09a5.14 5.14 0 001.58 3.28c.94.97 2.44 1.57 3.15 2.71.37.61 1.07 1.19 1.37 1.7.5.86.89 1.3 1.21 1.39.16.04.16-.47 1.3-.55 1.14-.07 1.23-.02 1.28-.2.06-.22-.21-.65-.32-1.31-.22-1.27.17-1.63-.2-2.92m4.82 29.18s-1.08-.3-1.35.56.21 1.13.21 1.13.3.08.54.3c.61.55.4 1.11.04 1.51-.16.18-.32.2-.36.29-.1.18 1.24.27 1.87-1.23.7-1.64-.95-2.56-.95-2.56zm-10.64 5.78s1.05-.38 1.4.45-.13 1.14-.13 1.14-.29.1-.51.35c-.57.6-.3 1.15.09 1.51.17.18.34.19.38.26.13.17-1.21.38-1.98-1.07-.8-1.59.75-2.64.75-2.64zm-3.27-3.47s1.13.03 1.14.93-.53 1.01-.53 1.01-.31 0-.6.14c-.75.35-.7.95-.48 1.44.1.22.24.29.27.38.05.22-1.27-.1-1.45-1.72-.2-1.77 1.65-2.18 1.65-2.18zm.72-4.38s.8.8.2 1.47c-.62.66-1.02.38-1.02.38s-.22-.21-.53-.3c-.78-.27-1.23.2-1.4.7-.08.23-.02.4-.07.47-.1.2-.86-.94.12-2.25 1.08-1.42 2.7-.46 2.7-.46z"/>
      <path d="M111.73 116.17c-.55-1.5.54-2.12.17-2.63-.1-.26-.24-.72-.6-1.5-.31-.67-.69-1.07-.9-1.42l.04.01c.17.01.09-.7 1.2-.97 1.02-.25 1.17-.24 1.2-.39.1.23.28.61.48 1.18.32.86.72 1.77.88 2.1.36.68 1.7 1.16.32 3.44-.48 1.21-.83 2.68-1.24 3.93 0 0-1.07 3.52-1.65 5.34a86.85 86.85 0 00-1.57 6.17c-.1.55-.4 1.72-.4 1.72-.04.48-.24 1.57-.14 1.83.05.14.39.16.61.3.32.2.25.4.62.32.6-.15.98.3.98.3s.36-.45.87-.22c.86.29.82.88.67 1-1.51.41-1.22 1.66-1.22 1.66s-.28.45-.9.17c-.72-.33-.5-.94-.56-1.24-.04-.13-.53.23-.87-.4-.16-.3-.86.02-1.1.32-.42.48-.5 1.08-1.11 1.22-.62.15-1 .03-1.26.45-.26.43-.21.72-.36 1.2-.12.36-.32.64-.62.9-.2.19-.85.64-.84 1.04.01.41.2.23.28.68.06.45-.12.8-.36 1-.53.4-.92.19-1 .03-.05-.58-1.37-1.31-1.94-.71-.08-.04-.24-.2-.24-.2-.28-.45-.06-1.26.63-1.59.56-.27.95-.01.95-.01l.1-.47c.04-.23.19-.48.23-.62.15-.39.38-.65.7-.77.55-.2.86-.83 1.1-1.32-.48.38-.88.66-1.5.71-.56.05-1.2-.05-1.63.3-.3.23-.5.65-.81.86.02.14.18.5-.23.9-.4.38-1 .38-1.25.23-.11-.07-.22-.3-.22-.43.02-.96-.78-1.65-1.22-1.5-.07.02-.09.03-.12-.05-.3-.64.57-1.25 1.09-1.27.16-.01.32-.01.47.03.13.04.36.17.41.31.3-.3.41-.52.8-.74.34-.18.7-.17 1.13-.16.6.01 1.1-.37 1.54-.58-.24.03-.8.11-1-.03-.14-.1-.24-.27-.4-.32-.17-.04-.33.02-.49.06-.5.14-.92-.03-1.36-.21-.12.17-.4.47-.75.48-.53.01-.8-.3-.78-.58 0-.1.24-.4.3-.49a1 1 0 00.11-.4c.18-1.09-.44-1.17-.44-1.17s.2-.41.76-.46c.5 0 1 .1 1.11.76.06.24.74.67 1.41.36.09-.05.45-.14.75-.1.9.14 1.52.71 2.59.6.6-.16 1.02-.25 1.45-.65.49-.48.56-.92.78-1.37.1-.24.22-.23.29-.38-.19-.23.29-1.75.52-1.96-.04-.3.3-1.62.48-1.83-.15-.35.19-1.76.39-1.9-.1-.14.31-1.65.57-1.88.1-.39.35-1.75.6-1.99.46-1.97 1.78-5.52 1.5-7zM87.05 69.82l.35-1.07-1.63-1.67-2.61.75c-1.5.4-3.35.96-5.33 1.49-3.2.85-6.7 2.16-7.02 2.27-2.9.99-3.47 2.3-3.37 2.2.65-.53 1.1-.59 1.1-.59a43.22 43.22 0 016.84-1.96c4-.86 11.25-1.3 11.67-1.42m6.97-4.56c.94-.06 3.09.5 4.78.36 1.76-.15 2.5-1.44 2.63-1.38.14.05 0 1.06-.67 1.74-1.04 1.07-2.57.8-2.57.8s.75.42 1.43.36c.9-.07 1.22-.48 1.3-.33.1.17-.3.87-.87 1.2-.6.36-1.3.28-1.3.28s.48.62 1.1.82c.71.23 1.5-.12 1.56-.03s-.3.71-.87.96c-.95.33-1.58.08-1.58.08"/>
      <path d="M87.27 69.59c-.38.17-7.5 1.66-11.34 3.07a44.17 44.17 0 00-6.47 2.93s1.43.01 4.89-1.32a56.76 56.76 0 0113.11-2.67l.99-1.27-1.18-.74z"/>
      <path d="M83.46 98.23c-2.3-2.99-2.14-8.24.44-11.96a42.4 42.4 0 013.81-4.5c1.88-2.05 3.54-3.46 5.33-5.3.88-.88 1.47-1.58 1.69-2.23.33-1 .04-1.59.04-1.59-1.05-.86-1.94.52-4.57-.06 0 0-1.04-.32-1.56-.4s-1.39-.46-1.39-.46.61-.94.12-1.86c-.35-.64-.78-.74-1.34-1.39-.47-.53-.5-1.41-.5-1.41s.16-.6 1.32-1.35c1.1-.7 3-1.53 5.07-1.48a8.33 8.33 0 017.61 6.91c.39 2.53-.92 4.5-2.74 7.08-.7.97-1.65 2.51-3.54 5.23-1.6 2.3-3.02 4.49-3.21 5.78-.18 1.12-.06 2.38 1.19 2.53 4.01.38 2.8-4.62 17.1-3.35 5.83.8 12.42 5.56 16.55 10.71 2.74 2.08 3.95 4.08 5.74 6.64.42.68.85 1.38 1.17 2.12 1.07 2.5.81 5.35.55 8.06-.08.7-.37 1.43-.72 2.04-.04-1.04-.4-2.24-.66-3.4.03 1.6.02 3.2-.3 4.76a8.97 8.97 0 01-1.99 4.26s.13-1.71.1-3c-.02-.86-.17-2.6-.57-3.35l-.09.49a14.04 14.04 0 01-3.1 7.03c.6-1.77.89-3.65.84-5.52a9.18 9.18 0 01-4.7 6.38 10.59 10.59 0 002.25-10.47c-.04.68-1.34 2.82-2.34 3.02 0 0 .3-2.19-.44-5.46a7.5 7.5 0 00-2.92-4.6c-1.46.03-1.69.12-3 .05-.35-.02-1.36-.06-1.73-.13.59 1.21.27 1.64.7 2.84.22.63.57 1 .54 1.23-.02.2-.1.15-1.2.42s-1.03.78-1.2.76c-.32-.03-.78-.4-1.42-1.15-.39-.47-1.17-.92-1.65-1.45-1.3-1.46-2.9-1.87-3.17-2.17-.2-.19-.63-.33-1.03-.79-.39-.43-2.62-.89-3.2-1.7l-.38-.37-3.67-1.56c-2.66.21-6.82-1.06-7.43-1.55-1.22-.96-4.46-1.8-6.4-4.33z"/>
      <path d="M88.8 64.95s.23.53.69.74c.44.19.92.17 1.04.18.12 0 .46-.1.8-.09.36.01.36.26.72.27s.58-.44.95-.43.6.15.84.07c.12-.05.29-.22.5-.35s.4-.21.52-.25a6.8 6.8 0 00-2.93-.85 8.83 8.83 0 00-3.27.58l.14.13z"/>
      <path fill="#fff" d="M89.54 66.83c.45.01.84.23.83.68 0 .2-.09.37-.23.51a1.01 1.01 0 01-.74.3c-.45-.02-.6-.33-.72-.54-.12-.26-.13-.5-.1-.55.13-.05.48-.4.96-.4z"/>
      <path d="M94.63 94.5c-.69.37-.9.36-1.51.46-.8.13-2.53.05-2.55 1.78-.03 2.14.92 2.93 2.48 4.5 1.4 1.41 2.32 1.6 5 3.36 1.51.95 3.94 1.54 9.84 2.13 4.1.4 8.25.79 12.03.17.97-.16 2.22-.31 3.07-.8.93-.55.92-1.2.35-1.52-.29-.9-1.37-1.07-2.16-1.03.3 0 1.98-.19 1.6-1.04.39-.75-.95-1.79-1.94-1.57 0 0 .33-.27.31-.7.03-.76-.72-1.47-1.9-1.6-.6-.62-2.47-1-4.1-1.2.42-.53 0-1.96-1.06-1.91 0 0-.76-.78-2.28-1.04-.51-.09-1.46-.2-1.46-.2.03-.64-.72-1.01-1.67-1.4-.17-.08-.5-.68-2.06-.74a4.44 4.44 0 00-1.82.21 5.48 5.48 0 00-2.57.09"/>
      <path fill="none" d="M101.84 103.36c.19-.1.7-.4.81-.58.12-.2.13-.44.12-.67-.02-.42-.1-.84-.28-1.24.36-.16.95-.48 1.14-.86.06-.14.08-.9-.2-1.24.42-.32.9-.93.8-1.54s-.64-1.14-1.25-1.21c.2-.4.47-.82.43-1.26s-.3-.88-.7-1.05c.17-.51-.25-1.11-.7-1.41m8.36 2c-.83-.08-1.8.2-1.95.16-.97-.17-4.1-.26-4.97.2"/>
      <path fill="none" d="M120.87 100.94c-1.08-.38-3.9-.95-5.85-.53 0 0-1.04-.64-2.89-.77s-3.25.06-3.25.06c-.66-.6-3.72-.73-5.32-.6m17.67 4.46c-1.08-.35-4.6-.43-6.53.04 0 0-1.05-.62-2.9-.7s-3.26.15-3.26.15c-.67-.6-4.15-.85-5.75-.68m1.34-5.49c1.66-.42 4 .08 4 .08 1.54-.18 3.57.04 4.24.32 1.5-.14 1.83.01 2.8.17m2.55 10.68c-.61-.56-1.03-.65-1.51-.95"/>
      <g fill="#000" stroke="none">
        <path d="M96.03 136.82c-.89.32-1.5 1.11-.78 1.95v.02c-.86-.9-.23-1.85.74-2.18zm-3.8-3.27c-.95-.07-1.62.48-1.31 1.5h-.02c-.4-1.1.37-1.77 1.37-1.7zm-.28-4.54c-.45-.54-1.62-.66-1.96.24l-.02-.01c.4-.96 1.54-1.01 2.13-.37zm12.27-9.86a2.1 2.1 0 00-.89-.01c-.13-.16-.25-.4.13-.27.26.07.54.19.76.28zm-.8 1.85c-.24-.23-.85.2-.84-.15-.03-.4.67.04.85.14zm-.52 1.87c-.25-.01-.52-.13-.75-.01-.4-.5.45-.27.66-.04zm-.59 1.83c-.23-.17-.6-.07-.78-.12-.34-.3.2-.27.39-.16.13.08.3.14.39.28zm.37.9c.32-2.24 1.17-4.36 1.82-6.52.73-2.06 1.43-4.14 2.23-6.19.13-.33.58-1.35.26-.5-.7 1.97-1.28 3.99-2 5.96-.79 2.4-1.71 4.78-2.31 7.25zm-.98 1.05c-.24-.24-.77.08-.85-.22-.14-.41.74.06.85.22zm3.25-9.44a2.18 2.18 0 00-.89-.01c-.16-.17-.22-.4.16-.26.25.07.51.19.73.27zm2.7-9.16c-.15.5.19 1.3.26 1.54a1.1 1.1 0 01-.26-1.54zm-14.56 24.17c-.12-.23-.23-.47-.36-.68l.3-.1c.05.26.06.52.09.77h-.03zm.64-4.59c.04.43-.14.8-.38 1.13l-.03-.02c.15-.38.17-.7.09-1.05zm8.81 1.21a1.1 1.1 0 01-.43-.83h.03c.1.28.29.43.56.55zm-6.83 5.68c.3.24.55.53.73.87l-.03.02a2.59 2.59 0 00-.86-.6zm16.36-2.03c.79.27 1.4 1.28.71 2.07h-.03c.6-.86-.04-1.62-.72-1.85zm-8.88 5.85c-.82.3-1.31 1.23-.67 1.97v.02c-.76-.75-.18-1.92.62-2.19zm-3.9-3.15c-.77-.02-1.57.69-1.23 1.56l-.02.01c-.4-.96.41-1.78 1.26-1.78zm-.49-4.63c-.8-.38-1.5-.4-1.88.41h-.03c.38-.92 1.12-1.03 2-.56zm7.18 1.42c-.56.1-.7 1-1.04 1.13-.32-.45.58-.88.91-1.1l.08-.02zm5.22.14c-.26-.5.74-1.82.47-.95-.25.26-.33.69-.47.95zm-11.08 1.71c-.55-.34-.14-1.25-.01-.4-.1.08.15.35.01.4zm3.24-2.35c.76.2 1.24-.46 1.9-.55a11 11 0 01-1.08.7c-.28.1-1.03.4-.82-.15zm-2.77-2.25c.12.55-.56 1.72-.25.53.05-.32-.26-.53.25-.53zm8.85.89c-.3-.04-.62-1.14-.33-.64.17.3.72.25.33.64zm-6.62 5.92c.47.28 1.1 1.27.25.48-.32-.19-.53-.11-.25-.48zm7.8-15.78c-.34-.2-.87.2-.99-.13-.15-.31.66-.05.86.07l.13.06zm-.7 1.88c-.32-.23-.95.35-.86-.23.28-.05.62.08.86.23zm-.4 1.9c-.31-.09-.95.13-.87-.26.31-.09.59.15.87.26zm-.48 1.86c-.38-.05-1.43-.19-.5-.29.17.08.37.15.5.29zm.42.88c.43-3.62 1.61-7.09 2.57-10.59.32-1.11.64-2.23 1.07-3.3-.91 3.18-1.72 6.4-2.62 9.58-.4 1.42-.78 2.85-1.02 4.31zm-.92 1.12c-.32-.24-.86.2-.91-.3.26-.08.7.1.91.3zm2.68-9.64c-.24-.07-.75 0-.85 0-.51-.37.3-.27.55-.14.1.03.2.1.3.14zm2.05-9.11c-.22.5 1.35 1.76.4 1.23-.36-.28-.57-.79-.4-1.23zM94.32 70.99c.27-.41.7-.37 1.1-.38-.22.32-.72.36-1.1.38zm-.92.95c.32-.45.79-.39 1.28-.39-.34.29-.84.3-1.28.39zm-.95.85a1.79 1.79 0 011.67-.46c-.5.24-1.14.34-1.67.46zm2.62-2.89c.16-.36.45-.37.8-.39-.14.3-.5.34-.8.39zm-5.09 11.82c-.18.5-.58.88-.97 1.18.14-.54.52-.92.97-1.18zm-.46 1.4c-.11.82-.34 1.69-.51 2.45-.21-1.02.08-1.65.51-2.45zm-1.15-.11c-.14.58-.21 1.16-.73 1.45.25-.5.3-1.08.73-1.45zm.5.71c-.29.67-.39 1.32-.73 1.92.05-.75.1-1.5.73-1.92zm2.53-3.88c-.2.39-.58.74-.95.94.13-.5.52-.76.95-.94zm-3.41 4.92c-.15.58-.2 1.14-.73 1.45.23-.5.31-1.1.72-1.45zm-3.34-21.83c-.87.35-1.9.76-2.83.8.87-.4 1.84-.64 2.83-.8zm-.42.94c-.38-.13-.9.06-1.19.24.1-.58.99-.67 1.19-.24zm5.08-2c.14 0 .14.2.14.54 0 .35 0 .6-.14.6s-.3-.25-.3-.6c0-.36.16-.55.3-.54zm-.85-.3c.7-.62 1.62-.4 2.13.23a3.52 3.52 0 00-2.13-.23zm4.47 5.33c-.75.35-1.49.64-2.25.33.78-.06 1.54-.46 2.25-.32zm-4.04-2.42c.14-.51.68-.59 1.07-.73-.1.45-.69.58-1.07.73zm-1.28-2.26c.3.21.62.05.89-.13l.15.28c-.4.14-.76.14-1.04-.15zm2.78-.18c.16.25.4.37.64.48-.3 0-.61-.1-.87-.26zm4.57 3.4c.4-.1.6.06.8.29a1.1 1.1 0 01-.8-.29zm-.37.29c.36.05.51.33.58.63-.33-.1-.47-.36-.58-.64zm1.01-1.98c.35-.12.64.02.8.29a.99.99 0 01-.79-.29zm-.34-.64a.6.6 0 01.61.16c-.27.18-.47.08-.61-.16zm-.69 1.26c.36-.04.62 0 .85.21-.37.1-.65.08-.85-.21zm1.41-.02c.28.01.42.14.54.34-.31.09-.48-.07-.54-.34zm19.48 38.03c-2.63 0-5.28-.27-7.58-.5-5.7-.56-8.3-1.13-9.9-2.15a48.63 48.63 0 00-2.35-1.43 11.24 11.24 0 01-2.68-1.94l-.3-.3c-1.4-1.4-2.26-2.25-2.23-4.33.02-1.63 1.47-1.8 2.33-1.89l.36-.04.26-.05c.41-.06.65-.1 1.2-.4l.15.29c-.6.32-.87.36-1.31.43-.08 0-.16.02-.25.04l-.37.04c-.86.1-2.03.23-2.05 1.58-.03 1.94.75 2.7 2.15 4.1l.3.29c.86.88 1.56 1.28 2.6 1.89.62.35 1.38.79 2.37 1.44 1.3.83 3.4 1.46 9.76 2.1 3.61.37 8.1.82 12 .18.1-.03.22-.04.33-.06.92-.14 1.94-.3 2.66-.73.43-.24.68-.54.67-.8 0-.17-.11-.32-.31-.42a.17.17 0 01-.08-.1c-.29-.9-1.48-.94-2-.9h-.01a.16.16 0 01-.16-.16c0-.08.06-.16.15-.17h.02c.4-.02 1.24-.17 1.44-.5.04-.04.08-.14 0-.31a.16.16 0 010-.14c.14-.26-.02-.53-.12-.68-.33-.41-1.03-.79-1.62-.66-.08.02-.15-.02-.19-.09a.16.16 0 01.05-.19s.27-.22.24-.56c.03-.72-.74-1.34-1.76-1.44a.11.11 0 01-.1-.06c-.45-.47-1.9-.89-4-1.14-.05-.01-.1-.05-.13-.1s0-.12.02-.16c.19-.23.17-.7-.03-1.1-.12-.22-.38-.58-.89-.56a.16.16 0 01-.11-.05 4.35 4.35 0 00-2.2-1c-.5-.08-1.44-.19-1.45-.2a.16.16 0 01-.14-.17c.02-.49-.56-.82-1.56-1.23a.55.55 0 01-.17-.13c-.2-.18-.65-.56-1.83-.6-1.14-.04-1.74.2-1.75.2-.04.02-.08.03-.12 0a5.25 5.25 0 00-2.46.1l-.14-.3c.42-.2 1.92-.32 2.64-.12.18-.06.8-.25 1.83-.21 1.3.05 1.8.48 2.03.69l.09.07c.87.36 1.68.74 1.75 1.4.28.03.94.11 1.33.18 1.35.23 2.12.85 2.32 1.04.47 0 .88.26 1.12.73.2.4.25.87.13 1.22 1.48.19 3.26.54 3.92 1.17 1.18.14 2.02.87 2 1.75a1 1 0 01-.12.5c.62.03 1.24.4 1.56.82.25.32.31.65.2.94a.6.6 0 01-.06.55c-.12.2-.35.33-.6.43.48.13.97.4 1.17.97.27.16.42.41.42.67 0 .38-.3.77-.83 1.1-.77.44-1.88.61-2.77.75-.12.02-.24.03-.35.06-1.44.25-2.95.35-4.49.35z" transform="translate(0 5)"/>
        <path d="M95.85 88.38c-.06-.03-.14-.02-.2.01-.42.3-.63.88-.92 1.25l-.2-.26c.4-.35.65-.79 1.1-1.01a.22.22 0 01.22.01z" transform="translate(0 5)"/>
        <path d="M94.64 88.34c.55.16.4.98.1 1.22-.53-.26.48-.69.02-1.1l-.05-.07zm4.01 6.98c.28-.13.89-.41 1.02-.22-.2.32-.75.49-1.02.22zm-1.12.79c.37-.08.75-.17 1.12-.04-.26.31-.85.38-1.12.04zm-2.38-.16c.3.37.75.56 1.18.74-.5.3-1.27-.13-1.18-.74zm4.54-1.69c.17-.23.96-.23.45.14-.16.08-.37.03-.45-.14zm-10.31 1.08c.21.49.51.93.75 1.41-.54-.16-1.01-.86-.75-1.41zm-1.15-.9c.1.42.42 1.3.23 1.46-.38-.36-.51-1-.23-1.46zm-1.03-1c.1.74.22 1.48.29 2.23-.49-.6-.66-1.54-.29-2.23zm-1.05-.42c.22.62.24 1.28.23 1.93a2.07 2.07 0 01-.23-1.93zm5.17 3.06c.23.29.3.67.51.96-.5.12-.73-.6-.51-.96zm2.61-7.01c-.62.5-1.45.28-2.18.29.64-.42 1.46-.27 2.18-.29zm5.79 9.58a3.15 3.15 0 002.05-.42l.15.3c-.35.11-.75.21-1.11.24-.4.05-.73 0-1.09-.12zm3.5-3.32c6.85 1 11.24.94 16.73 1.87-5.6-1-12.07-.63-16.76-1.58l.03-.3zm.93-2.41c5.14-.16 8.81.9 13.21 1.37-4.55-.27-8.62-1.35-13.19-1.03z" transform="translate(0 5)"/>
        <path d="M103.14 90.82c2.99-.5 6.29-.07 9.01.17-3.04-.1-5.96-.46-8.94.17zm-.34-2.26c1.6-.29 3.3-.35 4.96-.12a14.7 14.7 0 00-4.89.44l-.06-.32zm-1.01 9.76l.18.05c.12.03.3.09.53.14l.82.2 1.07.23c2.46.49 4.95.84 7.45 1.05.53.03 1.05.06 1.56.07 1 .05 1.95.06 2.76.07h2.5l.14-.01h.02-.01.01-.16c-.13.02-.31.02-.55.03l-1.95.03h-2.76l-1.56-.05a64.46 64.46 0 01-7.5-.92l-1.07-.22-.84-.18-.53-.13-.2-.04zm22.71 11.71c.15.24.28.5.37.76.3.76.46 1.56.71 2.34.1.31.23.61.35.92.04.03-.1.06-.14.1-.07.05.01-.1.01-.15.17-.7.32-1.4.43-2.12.08-.38.1-.78.17-1.16l.16-1.66c.04.42.01.84.03 1.26a17.24 17.24 0 01-.33 3.05c-.06.3-.12.62-.22.92-.08.15-.29.1-.36-.03-.12-.15-.16-.34-.23-.52-.23-.57-.34-1.19-.47-1.8a16.32 16.32 0 00-.47-1.91zm-2.82-3.83c.29.42.55.86.74 1.34.29.67.49 1.37.8 2.03.09.17.17.35.28.51-.07.02-.11.09-.17.13.1-.56.17-1.12.22-1.68.05-.36.06-.73.08-1.1.01-.48-.02-.96-.06-1.45l-.15-.91c.1.32.21.63.27.96.1.39.12.78.16 1.18.02.3 0 .61.01.92 0 .32-.04.63-.07.95-.03.37-.08.74-.14 1.1 0 .13-.06.3-.21.26-.23-.03-.29-.27-.39-.43-.16-.32-.28-.66-.4-1-.24-.7-.42-1.45-.7-2.15-.09-.22-.2-.44-.27-.66zm5.28 1.98c.17.28.32.58.42.89.22.59.35 1.2.49 1.81.1.4.2.78.34 1.16.04.07.05.17.1.24-.07.01-.12.07-.18.1.15-.54.3-1.09.42-1.64.06-.31.14-.62.18-.93.05-.37.12-.73.13-1.1.03-.39.02-.78.02-1.17l-.03-.28a8.02 8.02 0 01.16 2.57 13.65 13.65 0 01-.49 2.43c-.05.12-.04.3-.2.32-.2 0-.29-.2-.35-.35-.16-.4-.25-.83-.35-1.25-.11-.6-.2-1.19-.32-1.78-.09-.32-.16-.64-.3-.94l-.04-.08z" transform="translate(0 5)"/>
        <path d="M126.97 103.17c.22.27.42.55.56.87.18.39.38.77.5 1.18.13.36.28.7.42 1.05.11.22.21.45.34.66.07.1.06.1-.03.17-.06.08-.08.07-.06-.03.06-.47.14-.94.17-1.41l.07-1.13v-.97c-.05-.51-.1-1.03-.22-1.53a6.04 6.04 0 01.48 2.56c.03.35 0 .7 0 1.05-.04.5-.07.99-.15 1.48-.01.1-.02.25-.16.27-.15.02-.28-.1-.34-.23-.16-.3-.3-.6-.41-.92-.3-.77-.48-1.57-.8-2.33-.05-.16-.14-.31-.2-.47l-.17-.27zm-4.55-.61c.14.13.26.27.37.42.28.31.47.68.68 1.03l.55 1.05c.2.38.43.74.69 1.08.08.03-.05.06-.07.13-.06.11-.03-.05-.04-.1v-1.55c-.04-.6-.07-1.2-.17-1.8-.06-.4-.13-.81-.26-1.2l-.14-.43c.17.3.3.63.41.96.16.4.24.84.33 1.28.06.42.1.85.14 1.27 0 .4.03.78.02 1.17-.01.17 0 .35-.02.53-.11.2-.39.05-.47-.1a9.94 9.94 0 01-1.06-2.03c-.14-.35-.3-.69-.49-1.02-.1-.17-.18-.35-.3-.5a.95.95 0 01-.17-.19z" transform="translate(0 5)"/>
        <path d="M124.4 99.68c.55.24 1.03.6 1.47 1 .43.39.86.77 1.3 1.14.2.16.4.32.63.44l-.08.19a24.64 24.64 0 00-1.18-2.93 9.38 9.38 0 00-.95-1.5l-.17-.18a6.71 6.71 0 011.66 2.2c.17.36.35.7.49 1.08.16.44.4.88.45 1.34-.07.16-.3.14-.41.05a7.5 7.5 0 01-1.11-.93c-.44-.45-.88-.9-1.34-1.33-.24-.2-.48-.42-.77-.57zm4.69 6.05a3.06 3.06 0 01.82 1.59c.09.32.16.66.31.96.2.47.51.9.88 1.25-.07 0-.12.14-.16.14.03-.63.05-1.27.04-1.9a11.84 11.84 0 00-.42-2.91 7.39 7.39 0 00-.45-1.1l-.18-.32a5.87 5.87 0 01.96 1.9c.13.38.2.77.27 1.17.06.31.07.63.11.95.02.51.03 1.02.01 1.53-.02.25-.02.5-.05.76-.08.16-.3.09-.39-.02l-.3-.34c-.33-.44-.6-.92-.73-1.46-.14-.55-.18-1.13-.41-1.65-.08-.19-.2-.37-.31-.55zm-4.01-.61c.23.26.4.56.51.89.12.33.15.69.24 1.03.05.23.1.47.2.68.07.27.22.51.35.76.12.2.28.38.43.56-.04-.03-.12.09-.17.13a28.53 28.53 0 00.2-3.02c-.03-.2-.01-.39-.04-.58-.02-.29-.06-.57-.1-.85a7.9 7.9 0 00-.58-1.85c.21.34.41.7.55 1.08a7 7 0 01.43 1.94c.02.27.05.54.04.81 0 .31 0 .63-.03.94-.03.52-.1 1.04-.17 1.56-.03.2-.29.17-.38.04-.2-.24-.37-.5-.52-.76a4.63 4.63 0 01-.47-1.77 4.03 4.03 0 00-.2-.99c-.04-.22-.18-.4-.29-.6zm-22.39-16.29h-.19c-.12-.03-.25-.1-.37-.15l-.33-.14-.12-.02h-.04.04c.03-.02.08-.02.13-.03.1-.01.25.01.38.03.12.02.25.03.34.02h.05l.04-.02h.05l.02.31zm.28 2.34l-.2-.04a3.88 3.88 0 00-.42-.06c-.16 0-.33 0-.44.02-.12.01-.2.04-.2.04l.19-.08a2.75 2.75 0 01.9-.18l.2-.01-.03.3zm.33 2.7l-.03-.05c-.26-.43-.77-.5-1.21-.66.5.02.96.04 1.38.39l.05.05.05.04zm-.8 2.19h-.55c-.28-.03-.54-.1-.54-.1l.16-.01c.1-.01.23-.02.36-.05l.34-.1.1-.04a.12.12 0 00.05-.03l.08.33zm-.6-8.66l-.03-.02c-.23-.3-.56-.4-.92-.46.39-.09.76.03 1.11.22l.03.02.01.01-.2.24zm10.95 15.74c-.15-.36-.54-.53-.82-.73.45.15.81.25 1.1.59z" transform="translate(0 5)"/>
        <path d="M95.15 64.9c.18.27.43.22.73.22-.1-.37-.42-.32-.73-.22z" color="#000" style="font-feature-settings:normal;font-variant-alternates:normal;font-variant-caps:normal;font-variant-east-asian:normal;font-variant-ligatures:normal;font-variant-numeric:normal;font-variant-position:normal;font-variation-settings:normal;inline-size:0;isolation:auto;mix-blend-mode:normal;shape-margin:0;shape-padding:0;text-decoration-color:#000;text-decoration-line:none;text-decoration-style:solid;text-indent:0;text-orientation:mixed;text-transform:none;white-space:normal" transform="translate(0 5)"/>
      </g>
    </g>
    <g id="snake" stroke-width=".3" source="http://wappenwiki.org/images/3/36/Colbert.svg" license="https://creativecommons.org/licenses/by-nc-sa/3.0">
      <g fill="#F6F6F6" stroke-width=".25">
        <path d="M87.49 63.6c-.2.32-.32 1.14-.24 1.81.11.92.45 1.86.98 2.28 0-.22-.23-.99-.16-1.62.13-1.14.65-1.61.91-1.8"/>
        <path d="M88.69 63.67c-.14.31-.14 1.06.02 1.65.22.81.64 1.6 1.17 1.91-.03-.2-.33-.86-.35-1.43-.03-1.03.37-1.53.58-1.73"/>
        <path d="M89.58 71.24c-.1-.17-.15-.72-.1-1.09.07-.5.26-.9.56-1.12 0 .12-.14.53-.11.87.06.62.42 1.09.56 1.19"/>
        <path d="M90.8 71.22c-.12-.11-.29-.5-.33-.79-.06-.39-.01-.74.15-.97.03.09.02.43.13.68.19.45.57.72.7.76"/>
      </g>
      <path d="M125.22 73.51a11.17 11.17 0 00-4.11-5.99c-.93-.7-1.91-1.24-2.87-1.67-.97-.43-1.93-.75-2.87-1.01a29.58 29.58 0 00-4.19-.83l-.69-.08-.35-.04-.31-.03s-3.07-.51-5.21-.53c-.94-.84-2.55-.83-4.34-1.78a15.36 15.36 0 00-5.54-1.24c-2.13-.05-5.09 1.19-4.79 1.11-.98.25-1.44.31-2.44.5-.21.04-.43.09-.59.22-.09.07-.16.17-.23.27.07-.1-.07.32-.1.97-.02.4.53.59.84.66.55.13 1.05.4 1.59.56.63.19 2.8.27 3.44.37.44.07 1.12.23 1.9.37.27.45.36 1.14.33 1.66-.05.94-.35 1.42-.74 2.05-.3.48-.75.7-1.18 1.07-.68.33-2.32.91-3.08.92-.28 0-.61-.01-.77.21-.05.13.06.19.1.24.06.07.13.11.21.14.16.07.34.09.52.13.59.15 1.54.05 2.12-.12.18-.05.35-.12.53-.14.67-.07 1.33-.14 2.01-.24.36-.05 1.14-.12 1.96-.2l1.69-.07c.85-.03 1.97.18 2.71-.31.86.75 4.27-.33 8.29.14l.31.04.28.04.56.08c1 .15 1.76.2 2.68.65l1.1.55c.43.21.86.43 1.31.58.52.17 1.11.09 1.11.09s.71 1.2.95 1.55l1.14 1.55s-.41 1-.52 1.36c-.19.67-.19 1.8-.29 1.99-.2.37-1.26.63-1.72.92-.47.29-1.99 1.11-1.99 1.11s-1.45-.05-3.14.19c-1.11.16-2.87.6-2.87.6s-1.4-.32-2.78-.27c-.81.03-2.23.28-3.06.27 0 0-.64-.28-3.05-.3-.83-.01-2.49.22-2.49.22-1.11-.26-2.54-.37-3.68-.26-.73.07-1.84.28-1.84.28s-1.37-.28-2.89-.12-2.55.67-2.55.67-1.6.04-2.13.2c-.52.16-1.04.35-1.56.58-.52.23-1.53 1.11-1.53 1.11s-.72-.1-2.66 1.7c-.9.84-1.05 2.16-1.05 2.16-.01.08-1.08 1.31-1.25 1.9-.79 2.79-.51 4.27-.51 4.27 0 .08.07 1.82.23 2.41a8.3 8.3 0 001.35 2.82s.59 1.41 1.28 2.2a7.1 7.1 0 003.52 2.09c.22.43 1.52 1.19 2.83 1.53.86.22 1.55.21 2.43.3l.71.07c.23.02.46-.04.68 0s1.05.27 1.26.34c.65.2 1.74.22 2.41.23 1.23.03 2.03-.08 2.03-.08.38.13 1.76.48 2.15.5.52.03 1.04.08 1.56.09 1.13.01 2.14-.19 2.14-.19s1.35.48 2.1.54c2.22.19 3.18-.2 3.58-.14.44.06 1.1.24 1.55.28 1.46.15 2.96.23 3.26.05.39.49 1.26.37 1.76.55.76.27 1.07.86 1.75.86 0 .44.52.23.52 1.31 0 .85-.65 1.07-.46 1.45.15.02-.74.14-1.79.81-1.04.67-1.61 1.15-1.61 1.15-.3.06-1.18.01-2.07.15-.89.14-1.78.47-2.08.5-1.14.12-1.24-.04-2.38.11-.78.1-1.41.34-2.19.47 0 0-1.18.01-1.94.18-.88.19-1.44.46-2.25.84 0 0-1.02.23-1.84.58-1.08.46-1.46 1.15-1.69 1.33a7.7 7.7 0 00-1.5 1.57 3.15 3.15 0 00-.61 1.66c0 .54-.25 1.03-.28 1.58-.03.54-.02 1.09.11 1.61.1.4.52 1.1.78 1.41 0 0-.02.51.95 1.48s1.6.95 1.87 1.01c0 0 .86.46 1.49.69.91.33 1.9.33 1.9.33.16.08.64.6 1.14.94.51.35 1.18.57 1.18.57l-.11.75c-.07.46-.01.77-.1.97-.08.18-.45.29-.6.41-.71.57-.76 1.04-.85 1.12-.09.08-.24.12-.34.19a1.9 1.9 0 00-.58.65 3.29 3.29 0 00-.3 1.75l.08.18c0 .3-.03.7.1 1.08.35 1.03.87 1.1 1.2 1.29.18.1.57.47.75.18.11-.18-.07-.48-.14-.64-.37-.78-.29-1.89.36-2.46 1.04-.91 1.51-.86 2.53-1.9.16-.16.29-.36.42-.57a4.68 4.68 0 00.64-1.38l.09-.37.07-.39.02-.21.01-.14.01-.07v-.32a5 5 0 00-.26-1.6 4.85 4.85 0 00-1.06-1.61c-1.31-1.24-3.25-1.75-4.74-2.41-.49-.22-1.8-.65-1.8-2.12 0-.91.36-1.53 1.23-1.9 1.06-.39 2.35-.76 6-1.07 2.83-.25 4.59-.45 5.72-.63a20.07 20.07 0 005.37-1.7c.79-.39 1.6-.86 2.39-1.5a8.11 8.11 0 002.12-2.52 7.1 7.1 0 00.8-2.59l.02-.22.02-.26.01-.17v-.22a8.1 8.1 0 00-.74-3.34 8.05 8.05 0 00-2.06-2.7 9.6 9.6 0 00-3.05-1.75l-.35-.12-.18-.06-.19-.06-.2-.06-.09-.02-.07-.02-.13-.03-.07-.02-.21-.04h-.02l-.03-.01c-4.7-1.1-14.5-1.5-17.96-2-3.46-.5-6.99-.8-9.33-1.74a7.1 7.1 0 01-1.53-.84 3.99 3.99 0 01-.96-.97 3.3 3.3 0 01-.49-1.18 5.48 5.48 0 01-.11-.74l-.01-.2v-.38.02-.06l.01-.21c.03-.56.13-1.07.29-1.5a3.6 3.6 0 011.71-2c.22-.13.45-.25.7-.35a9.65 9.65 0 011.66-.49l.31-.05.08-.01.04-.01h.03l-.04.01.13-.02.25-.04.26-.03a26.3 26.3 0 012.26-.17c1.57-.07 3.2-.07 4.85-.05l9.03.08 2.58.02 1.31-.01.66-.01.69-.02.66-.03.7-.04a26.37 26.37 0 004.25-.59 18.6 18.6 0 005.82-2.22c.96-.59 1.92-1.34 2.75-2.29a9.86 9.86 0 001.96-3.33c.44-1.23.61-2.5.61-3.69.02-1.1-.09-2.26-.41-3.43z"/>
      <path fill="#F6F6F6" d="M92.42 61.88c-.02.19-.02.57.19.8.18.2.44.37.71.38.44.02.81-.16 1.01-.52.17-.3.2-.66.2-1a3.3 3.3 0 00-2.11.34z"/>
      <g fill="#000" stroke="none">
        <path d="M93.17 61.65c-.13.1-.13.21-.14.32-.02.31.19.71.4.85a2.5 2.5 0 01-.08-1.12"/>
        <path d="M88.17 62.59l-.07-.02c-.04-.01-.09-.02-.15-.01s-.12.02-.16.06l-.02.01-.02.01-.03.03-.07.09-.04.05-.03.05-.06.1-.1.19-.07.15-.03.06s-.06-.09-.07-.25a.66.66 0 01.03-.27c.01-.05.03-.1.06-.14l.04-.07.05-.07a.68.68 0 01.19-.17.08.08 0 01.04-.02l.04-.02a.4.4 0 01.31.02c.08.04.13.09.15.13l.01.09z"/>
        <path d="M87.67 63.29v-.04l.01-.07c.01-.05.03-.1.06-.14a.27.27 0 01.13-.07l.07-.01h.04l.02.03.02.08c.01.06-.01.13-.06.18s-.11.08-.17.07l-.08-.01-.04-.02z"/>
        <path d="M91.59 62.28l.11-.1.26-.19.27-.17.13-.08.11.28-.14.03a15.54 15.54 0 00-.61.17l-.13.06z"/>
        <path d="M100.11 65.47l.07.01.21.02a3.2 3.2 0 011.15.39l.17.1.06.04-.07-.03a3.34 3.34 0 00-.75-.22c-.21-.03-.42-.04-.58-.03l-.19.01-.07.01v-.3z"/>
        <path d="M94.33 60.68l.1-.03.12-.03.15-.02.18-.01.2.01.22.03.22.06.21.08.2.1.17.11.14.11.11.11.08.09.06.08-.1-.04-.25-.1c-.2-.08-.46-.18-.72-.26l-.2-.06-.19-.06-.18-.05-.17-.04-.26-.06-.09-.02z"/>
        <path d="M88.77 63.76s.04-.01.09 0 .11.03.16.06c.05.04.09.08.11.13l.03.09h-.1a.52.52 0 01-.16-.06.42.42 0 01-.11-.13l-.02-.09z"/>
        <path d="M89.99 64.23s.03-.03.07-.04c.04-.02.1-.01.14.01.05.02.08.06.1.11.02.04.01.08.01.08l-.08.01c-.04 0-.08 0-.12-.02a.24.24 0 01-.09-.08l-.03-.07z"/>
        <path d="M92.33 64.37l.06-.06c.04-.03.1-.04.15-.03.05.01.11.03.14.07l.05.07-.08.04c-.04.02-.09.02-.14.02a.5.5 0 01-.13-.05l-.05-.06z"/>
        <path d="M93.36 64.62l.08-.05c.05-.02.1-.04.16-.03.06 0 .12.02.16.05l.07.06-.08.05a.29.29 0 01-.16.03.28.28 0 01-.16-.05.73.73 0 01-.07-.06z"/>
        <path d="M94.37 64.7l.07-.06c.04-.03.1-.04.16-.02.06.01.11.05.14.09l.04.08-.08.03a.33.33 0 01-.14 0 .27.27 0 01-.12-.06.73.73 0 01-.07-.06z"/>
        <path d="M95.27 64.91l.05-.05a.15.15 0 01.11-.04c.04 0 .07.02.1.05l.04.06-.05.06a.15.15 0 01-.11.04c-.04 0-.07-.02-.1-.05-.03-.03-.04-.07-.04-.07z"/>
      </g>
      <g fill="none">
        <path d="M109.63 70.68c.54-1 .3-2.11.91-2.87"/>
        <path d="M109.61 70.68c.54-1 .3-2.11.91-2.87"/>
        <path d="M93.99 69.5l-1.23.61"/>
        <path d="M100.77 70.67a6.9 6.9 0 001.54-1.47"/>
        <path d="M102.31 69.19c.57-.71.84-1.66 1.11-2.03"/>
        <path d="M93.99 69.5c1.15-.46 1.96-1.48 2.94-2.23.91-.68 2.13-1.21 3.18-1.65"/>
        <path d="M94.35 65.34c.65.11 1.37.2 2.06.21 1.85.02 3.76.08 3.76.08"/>
        <path d="M103.42 67.17s2.25.19 3.33.13c1.8-.09 5.45.49 5.45.49s9.65 1.7 9.65 8.43-4.78 8.16-11.12 8.9c-6.34.74-21.17-.74-25.91.8s-6.62 5.16-6.62 7.8.66 6.24 5.18 8.22c4.72 2.07 25.24 2.65 28.44 3.45 3.31.83 4.57 2.77 4.57 5.28 0 2.89-2.17 3.92-4.7 4.84-5.22 1.92-13.36 1.56-16.04 3.66-1.9 1.49-2.84 3.69-1.43 5.89 2.19 3.34 6.26 1.54 7.97 5.06a3.58 3.58 0 01-1.47 4.25c-1.71 1.16-2.66 3.1-.7 4.95"/>
        <path d="M118.5 75.95c.11-.19 2.79-1.15 3.16-1.14"/>
        <path d="M116.41 72.84c.14-1.06.76-2 1.36-2.89"/>
        <path d="M111.71 71.21c0-1.15.4-2.29 1.11-3.18"/>
        <path d="M106.91 70.45a5.07 5.07 0 01.67-3.12"/>
        <path d="M117.8 79.28c.24-.04 2.04 1.48 2.37 2.24"/>
        <path d="M113.98 81.34c.32.96.65 1.98.59 2.98"/>
        <path d="M107.98 82.13c.33 1.01.4 2.09.2 3.13"/>
        <path d="M102.14 82.13a7.96 7.96 0 01-.18 3.11"/>
        <path d="M96.59 82.05c.39 1.07.39 2.08.01 3.16"/>
        <path d="M91.07 82.06c.28 1.01.38 2.08.29 3.12"/>
        <path d="M85.64 82.62c.44.87.72 1.83.82 2.8"/>
        <path d="M80.45 84.51a5.83 5.83 0 011.66 2.54"/>
        <path d="M76.7 88.45c.95.36 1.79 1 2.38 1.81"/>
        <path d="M75.03 94.43A9.43 9.43 0 0177 94.1a2.1 2.1 0 011.19.19"/>
        <path d="M76.54 99.77c.56-.64 1.98-1.03 2.82-1.06"/>
        <path d="M82.21 101.5c-.52.7-.83 1.55-.87 2.42"/>
        <path d="M88.38 103.09a8.3 8.3 0 00-.41 2.66"/>
        <path d="M94.2 103.94a7.21 7.21 0 00-.51 2.52"/>
        <path d="M99.92 104.4c-.35.69-.5 1.48-.42 2.25"/>
        <path d="M105.47 104.73a10.7 10.7 0 00-.24 2.53"/>
        <path d="M110.32 105.26a6.78 6.78 0 00-.28 2.33"/>
        <path d="M114.8 107.16c-.52.63-.87 1.11-1.26 1.83"/>
        <path d="M113.73 111.79c.73.3 1.19.73 1.76 1.27"/>
        <path d="M110.21 113.72c.31.09.52.38.68.67.21.37.28.66.42 1.06"/>
        <path d="M106.05 114.37c.25.78.36 1.51.3 2.33"/>
        <path d="M101.49 115.06c.32.72.46 1.51.41 2.3"/>
        <path d="M97.32 115.98c.42.55.68 1.33.72 2.03"/>
        <path d="M93.77 117.98c.57.33 1.05.81 1.4 1.37"/>
        <path d="M91.75 121.56c.66-.06 1.23.03 1.85.25"/>
        <path d="M92.36 125.61a3.72 3.72 0 011.54-1.07"/>
        <path d="M95.11 128.21a3.1 3.1 0 011.12-1.34"/>
        <path d="M98.52 129.15a2 2 0 01.83-1.3"/>
        <path d="M100.86 130.71c.34-.28.9-.41 1.34-.35"/>
        <path d="M100.61 132.49c.44.13.86.35 1.21.65"/>
        <path d="M99.28 134.11c.25.18.56.52.67.81"/>
        <path d="M98 136.77c.36-.09.53-.15.9-.17"/>
      </g>
    </g>
    <g id="wolfHeadErased" stroke-width=".324" source="http://wappenwiki.org/images/3/39/Balsic.svg" license="https://creativecommons.org/licenses/by-nc-sa/3.0">
      <path fill="#fff" d="M76.14 84.37c.93 3.76 3.54 5.13 3.8 4.82.27-.3-1.33-1.8-1.16-4.33"/>
      <path fill="#fff" d="M80.88 99.29c-.82-2.51.6-4.6.93-4.48.34.12-.22 1.97 1.03 3.83"/>
      <path d="M94.67 91.74c-2.17-1.14-6.88-2.79-9.57-2.3-6.43 1.17-7.2 4.05-11.33 4.8-4 .72-4.73-2.36-5.37-2.24-.32.2-.5 1.8.65 2.98 1.14 1.19 3.18 2.26 5.16 1.9 5.54-1 6.08-3.79 11.4-4.75 2.85-.52 8.04 1.09 9.54 1.97"/>
      <path d="M118.97 63.5a8.27 8.27 0 00-.45-1.61c-.3-.71-.74-1.59-1.53-1.7-.95-.13-1.18.24-2.25.58-.69.29-3.5.88-4.77 2.04l.82 3.65 8.18-2.97z"/>
      <path d="M116.48 63.48s-8.38-2.12-20.38.6c-1.94.45-2.07.57-3.61 1.8-.6.53-.42.74-1.07 1.52-2.2.74-.9 2.36-1.48 2.8-1.35.08-1.7 1.08-3.68 1.72a80.62 80.62 0 01-9.57 2.21c-1.12.17-3.16.63-4.22.89-.76 0-1.32.54-1.36.9-.06.65.14 1.37.33 2.16.3 1.37 1.26 2.07 1.38 2.58.1.4.37 1.78 1.07 2.8.3.42 3.82 1.62 7.15 2.17 3.84.64 5.42-.44 8.68 1.06 4.91 1.78 5.12 7.47 5.27 8.29.2 1.12-.63 1.72-1.35 2.06-1.01.5-2.96-.39-5.01 0-2.06.39-3.29 1.2-4.29 1.38-1.66.3-2.8.19-4.17.12-1.13.11-.84.28-.58.78a5.53 5.53 0 002.8 2.05c1.18.43 2.42.49 3.45.21.83-.22 1.23-.48 1.69-.77s2.25-.8 3.35-1c1.1-.2 2.94.04 3.52.02.1.52-.17 1.4-1.23 2.44-1.07 1.03-2.03 1.25-3.3 2.38-1.28 1.13-.36 2.25-1.98 3.68-.93.82-2.28.68-3.08.67-.26.23.43 1.4.53 1.52.85 1 1.43 1.02 1.96 1.16-1.7.09-3.05.04-4.82 2.43-1.78 2.39-4.23.9-4.38 1.04-.15.13.17 1.33 1.26 2.56.6.68 1.9 1 1.98 1.03-1.07.47-.43 2.31-1.16 3.38a3.57 3.57 0 01-4.23 1.14c1.52 2.62 3.6 3.06 5.08 2.9 2.9-.33 3.31-2.72 4.12-3.11-1.63 3.16-.15 5.31-3.51 8.31 6.24.88 8.65-5.4 9.86-5.55-1.45 2.27-.89 7.67-4.14 8.49 2.22 1.08 4.95.38 6.48-.7 2.77-1.96 3.89-4.34 4.1-4.17.28.85-1.45 3.95-1.14 6.57.13 1.1.66 3.8 2.12 4.95.52-4.39 4.7-5.92 6.9-12.07l.2-.62c.17.12.19.5.17.79-.03.72-.16 1.56-.07 2.63.14 1.67.84 2.75 2.78 4.4 1.34-5.67 3.38-4.4 4.86-9.68.04-.14.2-.3.25-.46a7.71 7.71 0 002.13 3.74 4.2 4.2 0 003.7 1.14c-1.33-3.15.42-6.42.65-10.2.01-.14-.05-.38.14-.44 1.4 3.37 5.56 3.78 6.94 2.41-2.85-1.97-1.2-5.8-1.5-8.67a5.2 5.2 0 00-.77-2.25c.25.19.84.44 1.3.62 1 .4 2.27.77 3.29-.08-2.97-1.82-1.44-5.99-2.28-8.14a5.5 5.5 0 00-1.2-1.92c.39.34 1.19.97 1.58 1.16a3 3 0 001.84.31c1.3-.1 2.26-.76 2.35-1.02-3.12-1.67-3.18-5.77-3.63-7.76-.1-.5-.43-1.34-.74-1.62.42.01.94.15 1.28.09 1.42-.25 2.15-.72 2.09-1.05-3.55-1.72-1.63-6.21-3.18-7.95a7.35 7.35 0 00-1.72-1.38c.62.15 1.6.14 2.01.05 1.3-.3 1.5-1.3 1.34-1.44-5.6-2.3-3.12-6.4-6.05-9.04"/>
      <path d="M117.9 75.9c1.52-.2 3.55-1.27 5.25-2.92m-7.38-9.27c-1.86.63-2.73 1.3-2.73 1.3m10.07 7.97c2.1-2.06 3.7-5.01 3.17-8.34-.14-.75-.38-1.7-1.13-1.98-.9-.34-1.2-.03-2.31.07-.74.14-2-.13-4.4.3-1.05.2-1.94.43-2.67.68"/>
      <path fill="#fff" d="M95.37 73.22s-.76.82-1.4 1.17c-.65.35-1.56.17-1.84-.26-.14-.29-.24-1.59.26-1.76.43-.23 2.98.85 2.98.85z"/>
      <g fill="#000" stroke="none">
        <path d="M115.7 72.28c1.36.68 2.83.89 4.29.96.02.07-.07.06-.11.08a4.77 4.77 0 01-4.07-.93c-.04-.04-.1-.07-.12-.11zm2.48-.95c1.32.45 2.73.21 4.05.35-1.39.3-3.17.55-4.06-.35zm4.18-7.25c-3.22.8-6.27 1.64-8.57 3.86 1.51-2.62 5.64-3.75 8.57-3.86zm-5.01 10.02c3.15-.85 5.85-2.9 7.36-5.69-.27 2.76-4.58 5.52-7.2 5.68-.04 0-.13.03-.16.01z"/>
        <path d="M92.77 72.66c.23 0 .43.37.44.84 0 .13 0 .25-.02.36-.05.3-.18.5-.35.5-.17.01-.32-.2-.4-.52a1.8 1.8 0 01-.04-.32c-.02-.47.15-.85.38-.86z"/>
        <path d="M95.43 73.07c.2.07.36.16.47.24-.1.2-.4.11-.59.06l.12-.3zm-2.26-5.44a2.68 2.68 0 013.48.34c-1.3-.41-2.48-.84-3.47-.33l-.01-.01zm-.96 6.63c-.4.27-.74.56-1.16.7.13-.43.63-.73.98-.96zm2.39-3.01c.75.79 1.82 1.03 2.8 1.32.02.06-.03.06-.07.05-1.1.07-2.28-.3-2.74-1.36zm-2.96 2.55c-.67.6-1.13 1.37-1.6 2.1.09-.97.86-1.84 1.6-2.1zm2.56 4.97c.2-.17.32-.38.46-.59.48-.94.52-2.07 1.17-2.92 1-1.19 2.58-1.45 3.99-1.38 0 .09-.16.05-.23.08-1.15.18-2.51.43-3.29 1.25-.63.64-.84 1.53-1.16 2.33-.2.48-.49.95-.93 1.23zm-2.74-10.25c-.14.41-.26.9-.05 1.3.15.25.5.35.76.2.51-.27.87-.79 1.44-.97.4-.16.85-.08 1.2.13.71.33 1.23.94 1.72 1.53.15.23.49.43.6.61-.36-.05-.75-.57-1.05-.8-.42-.4-.85-.82-1.4-1.06-.28-.14-.6-.24-.92-.12-.65.19-1.04.84-1.7.99-.49.1-.96-.38-.9-.86 0-.32.12-.62.26-.9.01 0 .03-.09.04-.05zm-1.8 4.16c-.62 1.22-.79 2.64-1.05 3.92-.2-1.36.05-2.98 1.05-3.92zm3.28-2.84c-.07.25-.19.48-.23.74-.27 1.3.56 1.03 1.33 1.56l.34.25c-.04.1-.18-.04-.27-.04-1.33-.26-2.3-.83-1.32-2.33l.15-.18z"/>
        <path d="M93.03 106.1a6.4 6.4 0 013.04-1.18c.88-.17 1.77-.35 2.59-.74a5.39 5.39 0 002.29-2.04c.11.05-.06.18-.08.26a4.84 4.84 0 01-1.84 1.92c-1.2.73-2.63.82-3.98 1.07-.71.12-1.4.36-2.02.72zm13.09 2.38c-.33.17-.68.32-1 .52a12.12 12.12 0 00-2.74 2.06c-1.04 1.03-1.93 2.2-2.98 3.22-.34.31-.7.6-1.09.85-.05-.1.16-.17.21-.26.7-.64 1.3-1.37 1.9-2.1.68-.82 1.37-1.66 2.2-2.35.55-.5 1.16-.91 1.81-1.24.5-.26 1-.49 1.53-.65l.16-.05zm-6.01.08c.5-.23 1-.48 1.49-.77.32-.21.66-.39.96-.63.4-.3.78-.6 1.13-.97.48-.46.88-1 1.24-1.56.34-.55.64-1.14.91-1.73.13-.25.25-.5.36-.77.11.03-.03.19-.03.27a9.02 9.02 0 01-2.24 4 7.28 7.28 0 01-2.38 1.64c-.46.23-.94.38-1.43.53zm10.45 5.52c1.57-2.93 4.22-3.16 4.63-6.81.71 3.48-3.38 4.5-4.61 6.8l-.01.01zm-.16-12.82c-1.18 4.2.93 8-2.43 10.35 2.57-1.84 1.02-7.9 2.16-9.88.08-.16.17-.32.27-.47zm2.59 21.62a14.58 14.58 0 003.14-8.28c.5 3.54-1.26 6.33-3.13 8.29l-.01-.01zm-8.59 1.57c.14-.8.7-1.46 1.27-2 1.52-1.35 3.34-2.34 4.69-3.87a7.67 7.67 0 001.33-2.07c.1.16-.14.5-.2.7a8.77 8.77 0 01-2.9 3.39c-.64.48-1.3.93-1.94 1.4-.8.6-1.66 1.21-2.11 2.14l-.14.31zm-7.57-.05a7.48 7.48 0 012.39-2.53c1.48-1.09 3.08-2.1 4.1-3.66.4-.62.72-1.28.9-2 .1-.2.07.12.03.2a5.98 5.98 0 01-.88 2.2 9.15 9.15 0 01-2.22 2.26c-1.14.84-2.37 1.56-3.42 2.5-.33.32-.64.65-.89 1.03zm-6.71-1.31a6.08 6.08 0 012.54-2.71c1.56-1 3.36-1.55 4.97-2.45.46-.27.9-.57 1.24-.99.07.07-.1.2-.14.3-.84.98-2.05 1.5-3.2 2.04-1.56.75-3.25 1.43-4.5 2.66-.35.34-.64.76-.91 1.15zm28.36-7.89a8.16 8.16 0 001.25-4.31c.16-2.76-1.24-5.05-.86-7.52.09 1.1.35 2.42.59 3.4.77 3.34 1.13 5.82-.97 8.44h-.01zm-22.78-4.24c-3.24 3.24-2.87 7.2-7.21 7.81 4.17-1.07 4.47-6.6 7.21-7.81zm14.43-15.18c2.56-2.54.18-6.58 1.91-9.24-.86 2.87.79 7.32-1.91 9.24zm4.9-2.68c-.76 3.57 1.67 8.6-1.6 11.08 2.9-3.14.27-7.7 1.6-11.08zm6.26 11.98c1.1-4.6-3.22-8.15-3.82-12.1 1.32 4.05 5.43 7.86 3.82 12.1zm-17.83-10.62c2.88-1.42 4.4-3.65 5.49-6.44-.26 2.93-2.89 5.7-5.49 6.44zm7.2-12.22c-.72-2.72-5.47-4.86-5.56-5.3 2.5 1.32 5.35 2.63 5.58 5.3h-.01zm-1.8-7.83a4.8 4.8 0 00-.87-1.52c-.3-.4-.67-.73-1.01-1.08-.47-.46-1-.88-1.38-1.41-.06-.04-.18-.37-.05-.28.1.17.24.3.4.43.36.31.75.57 1.1.9a6.54 6.54 0 011.45 1.7c.17.33.3.7.35 1.06v.2zm4.27-1.02a6.44 6.44 0 00-2.12-2.49c-1.07-.78-2.46-1.1-3.36-2.1-.23-.27-.4-.6-.46-.94-.03-.14.1.02.1.09.15.34.37.65.67.87.38.31.83.53 1.27.75.56.25 1.12.53 1.64.87a4.98 4.98 0 011.94 2.16c.12.26.23.52.32.79zm10.32 16.23a17.63 17.63 0 00-1.24-4.05 14.3 14.3 0 00-3.74-4.75 5.23 5.23 0 01-1.65-2.28c.17.04.2.43.36.58.65.97 1.65 1.62 2.48 2.43a11.17 11.17 0 013.36 5.49c.23.84.37 1.7.44 2.58zm.09 5.19c-3.03-2.29-3.35-6.63-6.87-8.03 3.8.7 4.57 5.74 6.87 8.03z"/>
        <path d="M87.25 111.8l.1-.31c1.1.4 2.02-.62 3.03-.61-1 .61-1.99 1.17-3.13.92zm32 5.48c.7.85 1.3 1.83 1.54 2.83l-.32.06c-.26-1.07-.92-2.02-1.22-2.89zM85 122.96c.28-1.04 1.44-1.84 2.48-2.03-.86.67-1.8 1.19-2.17 2.12l-.31-.09zm6.34 2.77a5.67 5.67 0 012.22-2.85c-.73 1.06-1.4 1.71-1.76 2.73l-.46.12zm22.51.19c-.1-.93-.22-2.25.51-2.89-.3.98-.33 1.9-.19 2.84l-.32.05zm-7.98 2.24c.49-1.23.75-2.48 1.23-3.65a11.97 11.97 0 01-.93 3.76l-.3-.11zm-6.42-1.93a4.8 4.8 0 01-1.41 3.28l-.22-.24c.83-.9 1.25-2.08 1.63-3.04zm-18.1-7.69c1.26.15 2.48-.1 3.68-.27-1.11.66-2.51.68-3.7.59l.02-.32zm43.12-36.73c.56.45 1.21.78 1.9.93 0 .1-.1.2-.12.31-.73-.2-1.5-.5-1.8-1.22l.02-.02zm3.24 11.5c-.64-.57-1.51-1.31-1.67-2.09.35.28 1.38 1.41 1.86 1.85l-.19.24zm-1.42 8.91c-.6-.67-1.35-1.4-1.44-2.13.35.4 1.18 1.38 1.67 1.91l-.23.22zm-1.11 9.53c-.61-.73-1.35-1.82-.77-2.57-.11.93.43 1.7 1 2.34l-.23.23zM100.3 98.69c-3.6-1.59-3.33.95-5.89 1.26l-.01-.32c.08-.02.17 0 .25-.04 1-.25 1.76-1.06 2.55-1.52 1.14-.6 2.07 0 3.1.62z"/>
        <path d="M72.93 80.64l-.23-.16c1.28-1.53 2.34-1 2.88-2.89.07 2.1-1.92 1.92-2.65 3.05zm19.41.27c.34.04.34.42.23.57-.24-.03-.24-.4-.23-.57zm-.81-.76c.39.17.34.48.2.62-.24-.18-.26-.34-.2-.62zm-.98-.8c.38.15.42.53.35.87-.29-.11-.34-.63-.35-.87zm11.59 10.5c.3.29.16.52-.1.67-.4-.39-.06-.7.1-.68zm-.67-.62a.7.7 0 01.01-.87c.32.3.22.66-.01.87zm-.77-2.36c.3.3.23.96-.04 1.24-.27-.43-.34-.86.04-1.24zm-1.16-1.4c.32.46.25.95-.02 1.39-.24-.5-.32-1.04.02-1.4zm-19.46-1.3c.97.04 2.02.12 2.83.04-.88.53-1.98.34-2.83-.03zm12.63 3.23c1.5-.39 3.17-.1 4.55.58-1.42-.35-3.08-.31-4.55-.59zm-16.8-10.18c-.62-.44-.62.15-.86.58-.7 1.3-2.27 1.56-2.66.03-.04-.08-.03-.28-.1-.1-.21.32-.21.73-.17 1.1-.16-.13-.15-.36-.16-.54 0-.23.03-.47.12-.68.06-.16.28-.32.43-.17.1.1.14.26.17.4.57 1.42 1.97.47 2.36-.54.3-.45.54-.45.87-.08zm-2.32-1.58c-.4-.22-.84-.4-1.12-.64.62-.07 1.09.02 1.12.64z"/>
      </g>
    </g>
    <g id="crown" stroke-width=".6" source="http://wappenwiki.org" license="https://creativecommons.org/licenses/by-nc-sa/3.0">
      <path d="M98.2 84c4.3 0 6.5-6.9 9.6-6.9 4.3 0 3.4 6.6 3.4 8.3 0 1.7 1 8.3-3.4 8.3-3.1 0-5.3-7-9.6-7"/>
      <path d="M101.8 84c-4.3 0-6.4-6.9-9.6-6.9-4.3 0-3.5 6.6-3.5 8.3 0 1.7-.8 8.3 3.5 8.3 3.1 0 5.3-7 9.6-7m33.5 4.9c1-6.2-3.5-11-2.7-15.5 1-6.2 5.6-3.5 6.9-3.1-1.5 8.7-2.6 18-2.6 18"/>
      <path d="M138.5 90.3c-4.3-1.4-5.2-8.8-8.3-9.9-4.2-1.3-4.4 5.2-4.8 7-.3 1.6-2.1 7.9 2 9.3 3.1 1 6.4-5.1 10.5-3.7M99 86.4c0-6.5-5.2-9.6-5.2-14.3 0-6.4 5-5.3 6.3-5.3s6.2-1.1 6.2 5.3c0 4.6-5.2 7.8-5.2 14.3m-36.4 5.2c-1-6.2 3.5-11 2.7-15.5-1-6.2-5.6-3.5-7-3.1a474 474 0 012.7 18"/>
      <path d="M61.5 90.3c4.3-1.4 5.1-8.8 8.3-9.9 4.1-1.3 4.4 5.2 4.8 7 .3 1.6 2.1 7.9-2 9.3-3.1 1-6.4-5.1-10.6-3.7"/>
      <path d="M100.3 88.2s1.7 17 8.4 17c5.8 0 10.4-10.6 10.4-10.6s1 11.9 7.6 11.9c3.8 0 9.1-11.5 9.1-11.5s-4 21.3-5.2 33.3c-5 3.3-30.7 3.3-30.7 3.3s-24.9-.7-30.6-3.3C68 116.3 64 95 64 95s5.3 11.5 9.1 11.5c6.7 0 7.6-11.9 7.6-11.9s4.6 10.5 10.3 10.5c6.9 0 8.5-16.9 8.5-16.9h.7z"/>
      <path d="M67.6 115c-.9.2-1.5-.4-1.6-1.4-.1-1 .5-1.7 1.3-1.9 2.6-.8 12.6-3.7 32.6-3.7 20.2 0 30.1 3 32.8 3.7.8.2 1.3.8 1.2 1.9 0 1-.7 1.5-1.6 1.4-3.3-.7-15.6-3.7-32.4-3.7-16.6-.1-28.8 2.9-32.3 3.7zm64.3 13.8a2 2 0 01-1.5 1.8c-5.7 2.2-19 3-30.3 3-11.4 0-24.7-.7-30.3-3-.8-.3-1.4-.9-1.5-1.8-.1-1 .2-1.7 1.1-1.9a176.5 176.5 0 0161.3 0c.8 0 1.2.8 1.2 1.9zm-5.6.2c-2.2-.5-14.2-1.7-26.3-1.7-12 0-24 1.2-26.3 1.7 1.4 0 8.6 1.4 26.3 1.4 17.6 0 25-1.4 26.3-1.4z"/>
      <path d="M82.7 114.5c1.5 0 2.6 1.8 2.6 4s-1.2 4-2.6 4c-1.4 0-2.5-1.8-2.5-4s1.1-4 2.5-4zM68.4 117c.6-.2 1.4 1.4 1.7 3.5.3 2.2.2 4-.6 4.2-1.4.4-2.7-1-3-3.1-.4-2 .5-4 1.9-4.6zm48.9-2.5c-1.4 0-2.6 1.8-2.6 4s1.2 4 2.6 4c1.4 0 2.6-1.8 2.6-4s-1.2-4-2.6-4zM100 113c-2.9 0-5.2 2.2-5.2 4.8s2.3 4.8 5.2 4.8c2.9 0 5.2-2.2 5.2-4.8 0-2.6-2.3-4.8-5.2-4.8zm31.7 4c-.7-.2-1.4 1.4-1.7 3.5-.4 2.2-.2 4 .5 4.2 1.4.4 2.8-1 3-3.1.4-2-.4-4-1.8-4.6z"/>
      <path d="M134.3 92.6s-3 11.8-8.2 11.8c-3.8 0-4.7-7.6-5.5-11.3-.4-2.3-1.3-2.8-2.7-.5-1.7 3.3-4.5 10.4-9 10.4-6 0-7.6-15.7-7.6-15.7h-2.6S97.2 103 91.1 103c-4.5 0-7.8-7.6-9.6-10.9-1.3-2.3-2.2-2-2.7.5-.7 3.7-1 12.3-5 12.3-5.1 0-8-12.8-8-12.8l-.9 5.3s3 10.2 8.8 10.2c6.3 0 7.5-10.7 7.5-10.7s3.8 9.4 10 9.4c5.9 0 8.1-6.6 8.9-11.5.7 4.9 2.9 11.5 8.8 11.5 6 0 9.8-9.1 9.8-9.1s1.2 10.4 7.6 10.4c5.8 0 9.3-10.7 9.3-10.7l-1.3-4.3z"/>
      <path d="M63.6 86.6c.7-.3 1.7 1.5 2.2 4.2.4 2.5.3 4.8-.6 5.1-1.7.5-3.3-1-3.7-3.5-.5-2.7.4-5.2 2.1-5.8zm36.4-6.7c-1.9 0-3.5 2.3-3.5 5.2 0 3 1.6 5.3 3.5 5.3s3.4-2.4 3.4-5.3c0-2.8-1.5-5.2-3.4-5.2zm36.5 6.7c-.7-.3-1.7 1.5-2.2 4.2-.4 2.5-.3 4.8.6 5.1 1.7.5 3.3-1 3.7-3.5.5-2.6-.5-5.2-2-5.8z"/>
    </g>
    <pattern id="semy_of_lozenge-azure-gules" width="0.125" height="0.125" viewBox="0 0 200 200" stroke="#000">
      <rect width="200" height="200" fill="#002352" stroke="none"/>
      <g fill="#b80015">
        <use transform="translate(-100 -50)" href="#lozenge"/>
        <use transform="translate(100 -50)" href="#lozenge"/>
        <use transform="translate(0 50)" href="#lozenge"/>
      </g>
    </pattern>
    <g id="lozenge" author="Azgaar" license="https://creativecommons.org/publicdomain/zero/1.0">
      <polygon points="100 60 135 100 100 140 65 100"/>
    </g>
  </defs>
  <g clip-path="url(#shield_724092937)">
    <rect class="field" x="0" y="0" width="200" height="200" fill="url(#semy_of_lozenge-azure-gules)"/>
    <g class="division" clip-path="url(#division_724092937)">
      <rect x="0" y="0" width="200" height="200" fill="#b80015"/>
    </g>
    <g class="charge" i="0" charge="crossSantiago" fill="#fff700" stroke="#000">
      <use xlink:href="#crossSantiago" transform="translate(-13.5 -13.5) scale(0.76)"/>
    </g>
    <g class="charge" i="1" charge="heron" fill="#ffffff" stroke="#000">
      <use xlink:href="#heron" transform="translate(61.5 -13.5) scale(0.76)"/>
    </g>
    <g class="charge" i="2" charge="snake" fill="#0e7407" transform="translate(7 6)" stroke="#000">
      <use xlink:href="#snake" transform="translate(-8.25 61.5) scale(0.76)"/>
    </g>
    <g class="charge" i="3" charge="wolfHeadErased" fill="#53260e" transform="translate(-8 6)" stroke="#000">
      <use xlink:href="#wolfHeadErased" transform="translate(56.5 56.5) scale(0.76)"/>
    </g>
    <g class="charge" i="4" charge="crown" fill="#69008f" transform="translate(0 -12)" stroke="#000">
      <use xlink:href="#crown" transform="translate(34 34) scale(0.66)"/>
    </g>
  </g>
  <path class="grad" d="m 51.2,19 h 96.4 c 3.1,12.7 10.7,20.9 26.5,20.8 C 175.7,94.5 165.3,144.3 100,200 43.5,154.2 22.8,102.8 25.1,39.7 37,38.9 47.1,34.7 51.2,19 Z" fill="url(#backlight)" stroke="#333333" stroke-width="1" style="pointer-events: none;"/>
</svg>